<svg width="481" height="84" viewBox="0 0 481 84" fill="none" xmlns="http://www.w3.org/2000/svg">
<rect width="481" height="84" rx="42" fill="#3B4E57"/>
<path d="M92.1875 46.445L89.1075 38.0275C88.9558 37.6542 88.7983 37.2108 88.635 36.6975C88.4717 36.1842 88.3083 35.63 88.145 35.035C87.9933 35.63 87.8358 36.19 87.6725 36.715C87.5092 37.2283 87.3517 37.6775 87.2 38.0625L84.1375 46.445H92.1875ZM100.5 56H96.86C96.4517 56 96.1192 55.9008 95.8625 55.7025C95.6058 55.4925 95.4133 55.2358 95.285 54.9325L93.395 49.77H82.9125L81.0225 54.9325C80.9292 55.2008 80.7483 55.4458 80.48 55.6675C80.2117 55.8892 79.8792 56 79.4825 56H75.8075L85.765 30.695H90.56L100.5 56ZM108.299 46.585C108.836 46.585 109.303 46.515 109.699 46.375C110.096 46.2233 110.423 46.0192 110.679 45.7625C110.948 45.5058 111.146 45.1967 111.274 44.835C111.414 44.4733 111.484 44.0767 111.484 43.645C111.484 42.7583 111.216 42.0583 110.679 41.545C110.154 41.02 109.361 40.7575 108.299 40.7575C107.238 40.7575 106.438 41.02 105.902 41.545C105.377 42.0583 105.114 42.7583 105.114 43.645C105.114 44.065 105.178 44.4558 105.307 44.8175C105.447 45.1792 105.645 45.4942 105.902 45.7625C106.17 46.0192 106.503 46.2233 106.899 46.375C107.308 46.515 107.774 46.585 108.299 46.585ZM113.182 56.805C113.182 56.455 113.077 56.1692 112.867 55.9475C112.657 55.7258 112.371 55.5567 112.009 55.44C111.648 55.3117 111.222 55.2183 110.732 55.16C110.253 55.1017 109.74 55.0608 109.192 55.0375C108.655 55.0025 108.095 54.9733 107.512 54.95C106.94 54.9267 106.38 54.88 105.832 54.81C105.353 55.0783 104.963 55.3933 104.659 55.755C104.368 56.1167 104.222 56.5367 104.222 57.015C104.222 57.33 104.298 57.6217 104.449 57.89C104.613 58.17 104.863 58.4092 105.202 58.6075C105.552 58.8058 106.001 58.9575 106.549 59.0625C107.098 59.1792 107.768 59.2375 108.562 59.2375C109.367 59.2375 110.061 59.1733 110.644 59.045C111.228 58.9283 111.706 58.7592 112.079 58.5375C112.464 58.3275 112.744 58.0708 112.919 57.7675C113.094 57.4758 113.182 57.155 113.182 56.805ZM117.487 38.6575V40.2675C117.487 40.7808 117.178 41.0958 116.559 41.2125L114.949 41.51C115.194 42.1283 115.317 42.805 115.317 43.54C115.317 44.4267 115.136 45.2317 114.774 45.955C114.424 46.6667 113.934 47.2733 113.304 47.775C112.674 48.2767 111.928 48.6675 111.064 48.9475C110.213 49.2158 109.291 49.35 108.299 49.35C107.949 49.35 107.611 49.3325 107.284 49.2975C106.958 49.2625 106.637 49.2158 106.322 49.1575C105.762 49.4958 105.482 49.875 105.482 50.295C105.482 50.6567 105.645 50.925 105.972 51.1C106.31 51.2633 106.753 51.38 107.302 51.45C107.85 51.52 108.474 51.5667 109.174 51.59C109.874 51.6017 110.592 51.6367 111.327 51.695C112.062 51.7533 112.779 51.8583 113.479 52.01C114.179 52.15 114.803 52.3775 115.352 52.6925C115.9 53.0075 116.338 53.4392 116.664 53.9875C117.003 54.5242 117.172 55.2183 117.172 56.07C117.172 56.8633 116.973 57.6333 116.577 58.38C116.192 59.1267 115.626 59.7917 114.879 60.375C114.144 60.9583 113.234 61.425 112.149 61.775C111.076 62.1367 109.851 62.3175 108.474 62.3175C107.121 62.3175 105.943 62.1833 104.939 61.915C103.936 61.6583 103.102 61.3083 102.437 60.865C101.772 60.4333 101.276 59.9317 100.949 59.36C100.623 58.7883 100.459 58.1933 100.459 57.575C100.459 56.735 100.71 56.035 101.212 55.475C101.725 54.9033 102.425 54.4483 103.312 54.11C102.833 53.865 102.454 53.5383 102.174 53.13C101.894 52.7217 101.754 52.185 101.754 51.52C101.754 51.2517 101.801 50.9775 101.894 50.6975C101.999 50.4058 102.145 50.12 102.332 49.84C102.53 49.56 102.775 49.2975 103.067 49.0525C103.358 48.7958 103.703 48.5683 104.099 48.37C103.189 47.88 102.472 47.2267 101.947 46.41C101.433 45.5933 101.177 44.6367 101.177 43.54C101.177 42.6533 101.352 41.8542 101.702 41.1425C102.063 40.4192 102.559 39.8067 103.189 39.305C103.831 38.7917 104.583 38.4008 105.447 38.1325C106.322 37.8642 107.273 37.73 108.299 37.73C109.069 37.73 109.793 37.8117 110.469 37.975C111.146 38.1267 111.764 38.3542 112.324 38.6575H117.487ZM130.788 44.9575C130.788 44.3975 130.706 43.8725 130.543 43.3825C130.391 42.8808 130.158 42.4433 129.843 42.07C129.528 41.6967 129.125 41.405 128.635 41.195C128.157 40.9733 127.597 40.8625 126.955 40.8625C125.707 40.8625 124.721 41.2183 123.998 41.93C123.286 42.6417 122.831 43.6508 122.633 44.9575H130.788ZM122.545 47.565C122.615 48.4867 122.779 49.2858 123.035 49.9625C123.292 50.6275 123.63 51.1817 124.05 51.625C124.47 52.0567 124.966 52.3833 125.538 52.605C126.121 52.815 126.763 52.92 127.463 52.92C128.163 52.92 128.764 52.8383 129.265 52.675C129.779 52.5117 130.222 52.3308 130.595 52.1325C130.98 51.9342 131.313 51.7533 131.593 51.59C131.885 51.4267 132.165 51.345 132.433 51.345C132.795 51.345 133.063 51.4792 133.238 51.7475L134.48 53.3225C134.002 53.8825 133.465 54.355 132.87 54.74C132.275 55.1133 131.651 55.4167 130.998 55.65C130.356 55.8717 129.697 56.0292 129.02 56.1225C128.355 56.2158 127.708 56.2625 127.078 56.2625C125.83 56.2625 124.669 56.0583 123.595 55.65C122.522 55.23 121.589 54.6175 120.795 53.8125C120.002 52.9958 119.378 51.9925 118.923 50.8025C118.468 49.6008 118.24 48.2125 118.24 46.6375C118.24 45.4125 118.439 44.2633 118.835 43.19C119.232 42.105 119.798 41.1658 120.533 40.3725C121.28 39.5675 122.184 38.9317 123.245 38.465C124.319 37.9983 125.526 37.765 126.868 37.765C128 37.765 129.044 37.9458 130 38.3075C130.957 38.6692 131.78 39.2 132.468 39.9C133.156 40.5883 133.693 41.44 134.078 42.455C134.475 43.4583 134.673 44.6075 134.673 45.9025C134.673 46.5558 134.603 46.9992 134.463 47.2325C134.323 47.4542 134.055 47.565 133.658 47.565H122.545ZM141.259 40.25C141.621 39.8883 142 39.5558 142.397 39.2525C142.805 38.9375 143.231 38.675 143.674 38.465C144.129 38.2433 144.613 38.0742 145.127 37.9575C145.64 37.8292 146.2 37.765 146.807 37.765C147.787 37.765 148.656 37.9342 149.414 38.2725C150.172 38.5992 150.802 39.0658 151.304 39.6725C151.817 40.2675 152.202 40.985 152.459 41.825C152.727 42.6533 152.862 43.5692 152.862 44.5725V56H148.539V44.5725C148.539 43.4758 148.288 42.63 147.787 42.035C147.285 41.4283 146.521 41.125 145.494 41.125C144.747 41.125 144.047 41.2942 143.394 41.6325C142.741 41.9708 142.122 42.4317 141.539 43.015V56H137.217V38.045H139.859C140.419 38.045 140.787 38.3075 140.962 38.8325L141.259 40.25ZM167.542 42.63C167.052 42.035 166.516 41.615 165.932 41.37C165.361 41.125 164.742 41.0025 164.077 41.0025C163.424 41.0025 162.835 41.125 162.31 41.37C161.785 41.615 161.336 41.9883 160.962 42.49C160.589 42.98 160.303 43.61 160.105 44.38C159.907 45.1383 159.807 46.0367 159.807 47.075C159.807 48.125 159.889 49.0175 160.052 49.7525C160.227 50.4758 160.472 51.0708 160.787 51.5375C161.102 51.9925 161.487 52.325 161.942 52.535C162.397 52.7333 162.905 52.8325 163.465 52.8325C164.363 52.8325 165.127 52.6458 165.757 52.2725C166.387 51.8992 166.982 51.3683 167.542 50.68V42.63ZM171.865 29.995V56H169.222C168.651 56 168.289 55.7375 168.137 55.2125L167.77 53.48C167.047 54.3083 166.212 54.9792 165.267 55.4925C164.334 56.0058 163.243 56.2625 161.995 56.2625C161.015 56.2625 160.117 56.0583 159.3 55.65C158.483 55.2417 157.777 54.6525 157.182 53.8825C156.599 53.1008 156.144 52.1383 155.817 50.995C155.502 49.8517 155.345 48.545 155.345 47.075C155.345 45.745 155.526 44.5083 155.887 43.365C156.249 42.2217 156.768 41.23 157.445 40.39C158.122 39.55 158.932 38.8967 159.877 38.43C160.822 37.9517 161.884 37.7125 163.062 37.7125C164.066 37.7125 164.923 37.87 165.635 38.185C166.347 38.5 166.982 38.9258 167.542 39.4625V29.995H171.865ZM184.916 48.335C183.668 48.3933 182.618 48.5042 181.766 48.6675C180.914 48.8192 180.232 49.0175 179.718 49.2625C179.205 49.5075 178.838 49.7933 178.616 50.12C178.394 50.4467 178.283 50.8025 178.283 51.1875C178.283 51.9458 178.505 52.4883 178.948 52.815C179.403 53.1417 179.993 53.305 180.716 53.305C181.603 53.305 182.367 53.1475 183.008 52.8325C183.662 52.5058 184.298 52.0158 184.916 51.3625V48.335ZM175.011 40.5475C177.076 38.6575 179.561 37.7125 182.466 37.7125C183.516 37.7125 184.455 37.8875 185.283 38.2375C186.112 38.5758 186.812 39.0542 187.383 39.6725C187.955 40.2792 188.387 41.0083 188.678 41.86C188.982 42.7117 189.133 43.645 189.133 44.66V56H187.173C186.765 56 186.45 55.9417 186.228 55.825C186.007 55.6967 185.832 55.4458 185.703 55.0725L185.318 53.7775C184.863 54.1858 184.42 54.5475 183.988 54.8625C183.557 55.1658 183.108 55.4225 182.641 55.6325C182.174 55.8425 181.673 56 181.136 56.105C180.611 56.2217 180.028 56.28 179.386 56.28C178.628 56.28 177.928 56.1808 177.286 55.9825C176.644 55.7725 176.09 55.4633 175.623 55.055C175.157 54.6467 174.795 54.1392 174.538 53.5325C174.282 52.9258 174.153 52.22 174.153 51.415C174.153 50.96 174.229 50.5108 174.381 50.0675C174.533 49.6125 174.778 49.1808 175.116 48.7725C175.466 48.3642 175.915 47.9792 176.463 47.6175C177.012 47.2558 177.683 46.9408 178.476 46.6725C179.281 46.4042 180.214 46.1883 181.276 46.025C182.338 45.85 183.551 45.745 184.916 45.71V44.66C184.916 43.4583 184.659 42.5717 184.146 42C183.633 41.4167 182.892 41.125 181.923 41.125C181.223 41.125 180.64 41.2067 180.173 41.37C179.718 41.5333 179.316 41.72 178.966 41.93C178.616 42.1283 178.295 42.3092 178.003 42.4725C177.723 42.6358 177.408 42.7175 177.058 42.7175C176.755 42.7175 176.498 42.6417 176.288 42.49C176.078 42.3267 175.909 42.14 175.781 41.93L175.011 40.5475ZM196.582 41.16C197.142 40.0867 197.807 39.2467 198.577 38.64C199.347 38.0217 200.257 37.7125 201.307 37.7125C202.135 37.7125 202.8 37.8933 203.302 38.255L203.022 41.4925C202.964 41.7025 202.876 41.8542 202.759 41.9475C202.654 42.0292 202.509 42.07 202.322 42.07C202.147 42.07 201.884 42.0408 201.534 41.9825C201.196 41.9242 200.864 41.895 200.537 41.895C200.059 41.895 199.633 41.965 199.259 42.105C198.886 42.245 198.548 42.4492 198.244 42.7175C197.953 42.9742 197.69 43.2892 197.457 43.6625C197.235 44.0358 197.025 44.4617 196.827 44.94V56H192.504V38.045H195.042C195.485 38.045 195.794 38.1267 195.969 38.29C196.144 38.4417 196.261 38.7217 196.319 39.13L196.582 41.16ZM224.81 46.445L221.73 38.0275C221.578 37.6542 221.421 37.2108 221.258 36.6975C221.094 36.1842 220.931 35.63 220.768 35.035C220.616 35.63 220.458 36.19 220.295 36.715C220.132 37.2283 219.974 37.6775 219.823 38.0625L216.76 46.445H224.81ZM233.123 56H229.483C229.074 56 228.742 55.9008 228.485 55.7025C228.228 55.4925 228.036 55.2358 227.908 54.9325L226.018 49.77H215.535L213.645 54.9325C213.552 55.2008 213.371 55.4458 213.103 55.6675C212.834 55.8892 212.502 56 212.105 56H208.43L218.388 30.695H223.183L233.123 56ZM239.251 56.28C237.687 56.28 236.486 55.8425 235.646 54.9675C234.817 54.0808 234.403 52.8617 234.403 51.31V41.2825H232.566C232.332 41.2825 232.134 41.2067 231.971 41.055C231.807 40.9033 231.726 40.6758 231.726 40.3725V38.6575L234.613 38.185L235.523 33.285C235.581 33.0517 235.692 32.8708 235.856 32.7425C236.019 32.6142 236.229 32.55 236.486 32.55H238.726V38.2025H243.521V41.2825H238.726V51.0125C238.726 51.5725 238.86 52.01 239.128 52.325C239.408 52.64 239.787 52.7975 240.266 52.7975C240.534 52.7975 240.756 52.7683 240.931 52.71C241.117 52.64 241.275 52.57 241.403 52.5C241.543 52.43 241.666 52.3658 241.771 52.3075C241.876 52.2375 241.981 52.2025 242.086 52.2025C242.214 52.2025 242.319 52.2375 242.401 52.3075C242.482 52.3658 242.57 52.4592 242.663 52.5875L243.958 54.6875C243.328 55.2125 242.605 55.6092 241.788 55.8775C240.971 56.1458 240.126 56.28 239.251 56.28ZM257.019 44.9575C257.019 44.3975 256.937 43.8725 256.774 43.3825C256.622 42.8808 256.389 42.4433 256.074 42.07C255.759 41.6967 255.356 41.405 254.866 41.195C254.388 40.9733 253.828 40.8625 253.186 40.8625C251.938 40.8625 250.952 41.2183 250.229 41.93C249.517 42.6417 249.062 43.6508 248.864 44.9575H257.019ZM248.776 47.565C248.846 48.4867 249.01 49.2858 249.266 49.9625C249.523 50.6275 249.861 51.1817 250.281 51.625C250.701 52.0567 251.197 52.3833 251.769 52.605C252.352 52.815 252.994 52.92 253.694 52.92C254.394 52.92 254.995 52.8383 255.496 52.675C256.01 52.5117 256.453 52.3308 256.826 52.1325C257.211 51.9342 257.544 51.7533 257.824 51.59C258.116 51.4267 258.396 51.345 258.664 51.345C259.026 51.345 259.294 51.4792 259.469 51.7475L260.711 53.3225C260.233 53.8825 259.696 54.355 259.101 54.74C258.506 55.1133 257.882 55.4167 257.229 55.65C256.587 55.8717 255.928 56.0292 255.251 56.1225C254.586 56.2158 253.939 56.2625 253.309 56.2625C252.061 56.2625 250.9 56.0583 249.826 55.65C248.753 55.23 247.82 54.6175 247.026 53.8125C246.233 52.9958 245.609 51.9925 245.154 50.8025C244.699 49.6008 244.471 48.2125 244.471 46.6375C244.471 45.4125 244.67 44.2633 245.066 43.19C245.463 42.105 246.029 41.1658 246.764 40.3725C247.511 39.5675 248.415 38.9317 249.476 38.465C250.55 37.9983 251.757 37.765 253.099 37.765C254.231 37.765 255.275 37.9458 256.231 38.3075C257.188 38.6692 258.011 39.2 258.699 39.9C259.387 40.5883 259.924 41.44 260.309 42.455C260.706 43.4583 260.904 44.6075 260.904 45.9025C260.904 46.5558 260.834 46.9992 260.694 47.2325C260.554 47.4542 260.286 47.565 259.889 47.565H248.776ZM267.49 40.25C267.852 39.8883 268.231 39.5558 268.628 39.2525C269.036 38.9375 269.462 38.675 269.905 38.465C270.36 38.2433 270.844 38.0742 271.358 37.9575C271.871 37.8292 272.431 37.765 273.038 37.765C274.018 37.765 274.887 37.9342 275.645 38.2725C276.404 38.5992 277.034 39.0658 277.535 39.6725C278.049 40.2675 278.434 40.985 278.69 41.825C278.959 42.6533 279.093 43.5692 279.093 44.5725V56H274.77V44.5725C274.77 43.4758 274.519 42.63 274.018 42.035C273.516 41.4283 272.752 41.125 271.725 41.125C270.979 41.125 270.279 41.2942 269.625 41.6325C268.972 41.9708 268.354 42.4317 267.77 43.015V56H263.448V38.045H266.09C266.65 38.045 267.018 38.3075 267.193 38.8325L267.49 40.25ZM293.774 42.63C293.284 42.035 292.747 41.615 292.164 41.37C291.592 41.125 290.974 41.0025 290.309 41.0025C289.655 41.0025 289.066 41.125 288.541 41.37C288.016 41.615 287.567 41.9883 287.194 42.49C286.82 42.98 286.534 43.61 286.336 44.38C286.138 45.1383 286.039 46.0367 286.039 47.075C286.039 48.125 286.12 49.0175 286.284 49.7525C286.459 50.4758 286.704 51.0708 287.019 51.5375C287.334 51.9925 287.719 52.325 288.174 52.535C288.629 52.7333 289.136 52.8325 289.696 52.8325C290.594 52.8325 291.359 52.6458 291.989 52.2725C292.619 51.8992 293.214 51.3683 293.774 50.68V42.63ZM298.096 29.995V56H295.454C294.882 56 294.52 55.7375 294.369 55.2125L294.001 53.48C293.278 54.3083 292.444 54.9792 291.499 55.4925C290.565 56.0058 289.474 56.2625 288.226 56.2625C287.246 56.2625 286.348 56.0583 285.531 55.65C284.714 55.2417 284.009 54.6525 283.414 53.8825C282.83 53.1008 282.375 52.1383 282.049 50.995C281.734 49.8517 281.576 48.545 281.576 47.075C281.576 45.745 281.757 44.5083 282.119 43.365C282.48 42.2217 282.999 41.23 283.676 40.39C284.353 39.55 285.164 38.8967 286.109 38.43C287.054 37.9517 288.115 37.7125 289.294 37.7125C290.297 37.7125 291.154 37.87 291.866 38.185C292.578 38.5 293.214 38.9258 293.774 39.4625V29.995H298.096ZM306.142 38.045V56H301.802V38.045H306.142ZM306.737 32.8125C306.737 33.1858 306.661 33.5358 306.509 33.8625C306.358 34.1892 306.154 34.475 305.897 34.72C305.652 34.965 305.36 35.1633 305.022 35.315C304.684 35.455 304.322 35.525 303.937 35.525C303.564 35.525 303.208 35.455 302.869 35.315C302.543 35.1633 302.257 34.965 302.012 34.72C301.767 34.475 301.569 34.1892 301.417 33.8625C301.277 33.5358 301.207 33.1858 301.207 32.8125C301.207 32.4275 301.277 32.0658 301.417 31.7275C301.569 31.3892 301.767 31.0975 302.012 30.8525C302.257 30.6075 302.543 30.415 302.869 30.275C303.208 30.1233 303.564 30.0475 303.937 30.0475C304.322 30.0475 304.684 30.1233 305.022 30.275C305.36 30.415 305.652 30.6075 305.897 30.8525C306.154 31.0975 306.358 31.3892 306.509 31.7275C306.661 32.0658 306.737 32.4275 306.737 32.8125ZM309.849 56V38.045H312.491C313.051 38.045 313.419 38.3075 313.594 38.8325L313.874 40.1625C314.189 39.8125 314.515 39.4917 314.854 39.2C315.204 38.9083 315.571 38.6575 315.956 38.4475C316.353 38.2375 316.773 38.0742 317.216 37.9575C317.671 37.8292 318.167 37.765 318.704 37.765C319.835 37.765 320.763 38.0742 321.486 38.6925C322.221 39.2992 322.77 40.11 323.131 41.125C323.411 40.53 323.761 40.0225 324.181 39.6025C324.601 39.1708 325.062 38.8208 325.564 38.5525C326.065 38.2842 326.596 38.0858 327.156 37.9575C327.728 37.8292 328.3 37.765 328.871 37.765C329.863 37.765 330.744 37.9167 331.514 38.22C332.284 38.5233 332.931 38.9667 333.456 39.55C333.981 40.1333 334.378 40.845 334.646 41.685C334.926 42.525 335.066 43.4875 335.066 44.5725V56H330.744V44.5725C330.744 43.4292 330.493 42.5717 329.991 42C329.49 41.4167 328.755 41.125 327.786 41.125C327.343 41.125 326.929 41.2008 326.544 41.3525C326.17 41.5042 325.838 41.7258 325.546 42.0175C325.266 42.2975 325.045 42.6533 324.881 43.085C324.718 43.5167 324.636 44.0125 324.636 44.5725V56H320.296V44.5725C320.296 43.3708 320.051 42.4958 319.561 41.9475C319.083 41.3992 318.377 41.125 317.444 41.125C316.814 41.125 316.225 41.2825 315.676 41.5975C315.14 41.9008 314.638 42.3208 314.171 42.8575V56H309.849ZM350.042 44.9575C350.042 44.3975 349.961 43.8725 349.797 43.3825C349.646 42.8808 349.412 42.4433 349.097 42.07C348.782 41.6967 348.38 41.405 347.89 41.195C347.412 40.9733 346.852 40.8625 346.21 40.8625C344.962 40.8625 343.976 41.2183 343.252 41.93C342.541 42.6417 342.086 43.6508 341.887 44.9575H350.042ZM341.8 47.565C341.87 48.4867 342.033 49.2858 342.29 49.9625C342.547 50.6275 342.885 51.1817 343.305 51.625C343.725 52.0567 344.221 52.3833 344.792 52.605C345.376 52.815 346.017 52.92 346.717 52.92C347.417 52.92 348.018 52.8383 348.52 52.675C349.033 52.5117 349.477 52.3308 349.85 52.1325C350.235 51.9342 350.567 51.7533 350.847 51.59C351.139 51.4267 351.419 51.345 351.687 51.345C352.049 51.345 352.317 51.4792 352.492 51.7475L353.735 53.3225C353.257 53.8825 352.72 54.355 352.125 54.74C351.53 55.1133 350.906 55.4167 350.252 55.65C349.611 55.8717 348.952 56.0292 348.275 56.1225C347.61 56.2158 346.962 56.2625 346.332 56.2625C345.084 56.2625 343.923 56.0583 342.85 55.65C341.777 55.23 340.843 54.6175 340.05 53.8125C339.257 52.9958 338.632 51.9925 338.177 50.8025C337.722 49.6008 337.495 48.2125 337.495 46.6375C337.495 45.4125 337.693 44.2633 338.09 43.19C338.487 42.105 339.052 41.1658 339.787 40.3725C340.534 39.5675 341.438 38.9317 342.5 38.465C343.573 37.9983 344.781 37.765 346.122 37.765C347.254 37.765 348.298 37.9458 349.255 38.3075C350.212 38.6692 351.034 39.2 351.722 39.9C352.411 40.5883 352.947 41.44 353.332 42.455C353.729 43.4583 353.927 44.6075 353.927 45.9025C353.927 46.5558 353.857 46.9992 353.717 47.2325C353.577 47.4542 353.309 47.565 352.912 47.565H341.8ZM360.514 40.25C360.875 39.8883 361.254 39.5558 361.651 39.2525C362.059 38.9375 362.485 38.675 362.929 38.465C363.384 38.2433 363.868 38.0742 364.381 37.9575C364.894 37.8292 365.454 37.765 366.061 37.765C367.041 37.765 367.91 37.9342 368.669 38.2725C369.427 38.5992 370.057 39.0658 370.559 39.6725C371.072 40.2675 371.457 40.985 371.714 41.825C371.982 42.6533 372.116 43.5692 372.116 44.5725V56H367.794V44.5725C367.794 43.4758 367.543 42.63 367.041 42.035C366.539 41.4283 365.775 41.125 364.749 41.125C364.002 41.125 363.302 41.2942 362.649 41.6325C361.995 41.9708 361.377 42.4317 360.794 43.015V56H356.471V38.045H359.114C359.674 38.045 360.041 38.3075 360.216 38.8325L360.514 40.25ZM381.273 56.28C379.709 56.28 378.508 55.8425 377.668 54.9675C376.839 54.0808 376.425 52.8617 376.425 51.31V41.2825H374.588C374.354 41.2825 374.156 41.2067 373.993 41.055C373.829 40.9033 373.748 40.6758 373.748 40.3725V38.6575L376.635 38.185L377.545 33.285C377.604 33.0517 377.714 32.8708 377.878 32.7425C378.041 32.6142 378.251 32.55 378.508 32.55H380.748V38.2025H385.543V41.2825H380.748V51.0125C380.748 51.5725 380.882 52.01 381.15 52.325C381.43 52.64 381.809 52.7975 382.288 52.7975C382.556 52.7975 382.778 52.7683 382.953 52.71C383.139 52.64 383.297 52.57 383.425 52.5C383.565 52.43 383.688 52.3658 383.793 52.3075C383.898 52.2375 384.003 52.2025 384.108 52.2025C384.236 52.2025 384.341 52.2375 384.423 52.3075C384.504 52.3658 384.592 52.4592 384.685 52.5875L385.98 54.6875C385.35 55.2125 384.627 55.6092 383.81 55.8775C382.994 56.1458 382.148 56.28 381.273 56.28ZM395.418 37.765C396.748 37.765 397.956 37.9808 399.041 38.4125C400.138 38.8442 401.071 39.4567 401.841 40.25C402.623 41.0433 403.223 42.0117 403.643 43.155C404.063 44.2983 404.273 45.5758 404.273 46.9875C404.273 48.4108 404.063 49.6942 403.643 50.8375C403.223 51.9808 402.623 52.955 401.841 53.76C401.071 54.565 400.138 55.1833 399.041 55.615C397.956 56.0467 396.748 56.2625 395.418 56.2625C394.077 56.2625 392.858 56.0467 391.761 55.615C390.664 55.1833 389.725 54.565 388.943 53.76C388.173 52.955 387.573 51.9808 387.141 50.8375C386.721 49.6942 386.511 48.4108 386.511 46.9875C386.511 45.5758 386.721 44.2983 387.141 43.155C387.573 42.0117 388.173 41.0433 388.943 40.25C389.725 39.4567 390.664 38.8442 391.761 38.4125C392.858 37.9808 394.077 37.765 395.418 37.765ZM395.418 52.9375C396.912 52.9375 398.014 52.4358 398.726 51.4325C399.449 50.4292 399.811 48.9592 399.811 47.0225C399.811 45.0858 399.449 43.61 398.726 42.595C398.014 41.58 396.912 41.0725 395.418 41.0725C393.902 41.0725 392.776 41.5858 392.041 42.6125C391.318 43.6275 390.956 45.0975 390.956 47.0225C390.956 48.9475 391.318 50.4175 392.041 51.4325C392.776 52.4358 393.902 52.9375 395.418 52.9375Z" fill="#F5F5F5"/>
</svg>
