<svg width="477" height="224" viewBox="0 0 477 224" fill="none" xmlns="http://www.w3.org/2000/svg">
<rect width="449" height="224" rx="12" fill="#D9D9D9"/>
<rect x="27.5" y="22.5" width="395" height="34" rx="4.5" fill="#D9D9D9" stroke="#3B4E57"/>
<rect x="27.5" y="65.5" width="395" height="34" rx="4.5" fill="#D9D9D9" stroke="#3B4E57"/>
<rect x="27.5" y="109.5" width="395" height="34" rx="5.5" fill="#D9D9D9" stroke="#3B4E57"/>
<path d="M56.08 33.2525V44H55.3525C55.2375 44 55.14 43.98 55.06 43.94C54.985 43.9 54.91 43.8325 54.835 43.7375L48.6175 35.6375C48.6275 35.7625 48.635 35.885 48.64 36.005C48.645 36.125 48.6475 36.2375 48.6475 36.3425V44H47.3725V33.2525H48.1225C48.1875 33.2525 48.2425 33.2575 48.2875 33.2675C48.3325 33.2725 48.3725 33.285 48.4075 33.305C48.4425 33.32 48.4775 33.345 48.5125 33.38C48.5475 33.41 48.585 33.45 48.625 33.5L54.8425 41.5925C54.8325 41.4625 54.8225 41.3375 54.8125 41.2175C54.8075 41.0925 54.805 40.975 54.805 40.865V33.2525H56.08ZM61.1807 36.2825C61.7357 36.2825 62.2357 36.375 62.6807 36.56C63.1257 36.745 63.5057 37.0075 63.8207 37.3475C64.1357 37.6875 64.3757 38.1 64.5407 38.585C64.7107 39.065 64.7957 39.6025 64.7957 40.1975C64.7957 40.7975 64.7107 41.3375 64.5407 41.8175C64.3757 42.2975 64.1357 42.7075 63.8207 43.0475C63.5057 43.3875 63.1257 43.65 62.6807 43.835C62.2357 44.015 61.7357 44.105 61.1807 44.105C60.6207 44.105 60.1157 44.015 59.6657 43.835C59.2207 43.65 58.8407 43.3875 58.5257 43.0475C58.2107 42.7075 57.9682 42.2975 57.7982 41.8175C57.6332 41.3375 57.5507 40.7975 57.5507 40.1975C57.5507 39.6025 57.6332 39.065 57.7982 38.585C57.9682 38.1 58.2107 37.6875 58.5257 37.3475C58.8407 37.0075 59.2207 36.745 59.6657 36.56C60.1157 36.375 60.6207 36.2825 61.1807 36.2825ZM61.1807 43.0625C61.9307 43.0625 62.4907 42.8125 62.8607 42.3125C63.2307 41.8075 63.4157 41.105 63.4157 40.205C63.4157 39.3 63.2307 38.595 62.8607 38.09C62.4907 37.585 61.9307 37.3325 61.1807 37.3325C60.8007 37.3325 60.4682 37.3975 60.1832 37.5275C59.9032 37.6575 59.6682 37.845 59.4782 38.09C59.2932 38.335 59.1532 38.6375 59.0582 38.9975C58.9682 39.3525 58.9232 39.755 58.9232 40.205C58.9232 41.105 59.1082 41.8075 59.4782 42.3125C59.8532 42.8125 60.4207 43.0625 61.1807 43.0625ZM66.1889 44V36.4025H66.9914C67.1814 36.4025 67.2989 36.495 67.3439 36.68L67.4414 37.46C67.7214 37.115 68.0364 36.8325 68.3864 36.6125C68.7364 36.3925 69.1414 36.2825 69.6014 36.2825C70.1114 36.2825 70.5239 36.425 70.8389 36.71C71.1589 36.995 71.3889 37.38 71.5289 37.865C71.6389 37.59 71.7789 37.3525 71.9489 37.1525C72.1239 36.9525 72.3189 36.7875 72.5339 36.6575C72.7489 36.5275 72.9764 36.4325 73.2164 36.3725C73.4614 36.3125 73.7089 36.2825 73.9589 36.2825C74.3589 36.2825 74.7139 36.3475 75.0239 36.4775C75.3389 36.6025 75.6039 36.7875 75.8189 37.0325C76.0389 37.2775 76.2064 37.58 76.3214 37.94C76.4364 38.295 76.4939 38.7025 76.4939 39.1625V44H75.1514V39.1625C75.1514 38.5675 75.0214 38.1175 74.7614 37.8125C74.5014 37.5025 74.1264 37.3475 73.6364 37.3475C73.4164 37.3475 73.2064 37.3875 73.0064 37.4675C72.8114 37.5425 72.6389 37.655 72.4889 37.805C72.3389 37.955 72.2189 38.145 72.1289 38.375C72.0439 38.6 72.0014 38.8625 72.0014 39.1625V44H70.6589V39.1625C70.6589 38.5525 70.5364 38.0975 70.2914 37.7975C70.0464 37.4975 69.6889 37.3475 69.2189 37.3475C68.8889 37.3475 68.5839 37.4375 68.3039 37.6175C68.0239 37.7925 67.7664 38.0325 67.5314 38.3375V44H66.1889ZM83.3079 39.3725C83.3079 39.0625 83.2629 38.78 83.1729 38.525C83.0879 38.265 82.9604 38.0425 82.7904 37.8575C82.6254 37.6675 82.4229 37.5225 82.1829 37.4225C81.9429 37.3175 81.6704 37.265 81.3654 37.265C80.7254 37.265 80.2179 37.4525 79.8429 37.8275C79.4729 38.1975 79.2429 38.7125 79.1529 39.3725H83.3079ZM84.3879 42.935C84.2229 43.135 84.0254 43.31 83.7954 43.46C83.5654 43.605 83.3179 43.725 83.0529 43.82C82.7929 43.915 82.5229 43.985 82.2429 44.03C81.9629 44.08 81.6854 44.105 81.4104 44.105C80.8854 44.105 80.4004 44.0175 79.9554 43.8425C79.5154 43.6625 79.1329 43.4025 78.8079 43.0625C78.4879 42.7175 78.2379 42.2925 78.0579 41.7875C77.8779 41.2825 77.7879 40.7025 77.7879 40.0475C77.7879 39.5175 77.8679 39.0225 78.0279 38.5625C78.1929 38.1025 78.4279 37.705 78.7329 37.37C79.0379 37.03 79.4104 36.765 79.8504 36.575C80.2904 36.38 80.7854 36.2825 81.3354 36.2825C81.7904 36.2825 82.2104 36.36 82.5954 36.515C82.9854 36.665 83.3204 36.885 83.6004 37.175C83.8854 37.46 84.1079 37.815 84.2679 38.24C84.4279 38.66 84.5079 39.14 84.5079 39.68C84.5079 39.89 84.4854 40.03 84.4404 40.1C84.3954 40.17 84.3104 40.205 84.1854 40.205H79.1079C79.1229 40.685 79.1879 41.1025 79.3029 41.4575C79.4229 41.8125 79.5879 42.11 79.7979 42.35C80.0079 42.585 80.2579 42.7625 80.5479 42.8825C80.8379 42.9975 81.1629 43.055 81.5229 43.055C81.8579 43.055 82.1454 43.0175 82.3854 42.9425C82.6304 42.8625 82.8404 42.7775 83.0154 42.6875C83.1904 42.5975 83.3354 42.515 83.4504 42.44C83.5704 42.36 83.6729 42.32 83.7579 42.32C83.8679 42.32 83.9529 42.3625 84.0129 42.4475L84.3879 42.935ZM85.7277 43.175C85.7277 43.045 85.7502 42.9225 85.7952 42.8075C85.8452 42.6925 85.9102 42.5925 85.9902 42.5075C86.0752 42.4225 86.1752 42.355 86.2902 42.305C86.4052 42.255 86.5277 42.23 86.6577 42.23C86.7877 42.23 86.9102 42.255 87.0252 42.305C87.1402 42.355 87.2402 42.4225 87.3252 42.5075C87.4102 42.5925 87.4777 42.6925 87.5277 42.8075C87.5777 42.9225 87.6027 43.045 87.6027 43.175C87.6027 43.31 87.5777 43.435 87.5277 43.55C87.4777 43.66 87.4102 43.7575 87.3252 43.8425C87.2402 43.9275 87.1402 43.9925 87.0252 44.0375C86.9102 44.0875 86.7877 44.1125 86.6577 44.1125C86.5277 44.1125 86.4052 44.0875 86.2902 44.0375C86.1752 43.9925 86.0752 43.9275 85.9902 43.8425C85.9102 43.7575 85.8452 43.66 85.7952 43.55C85.7502 43.435 85.7277 43.31 85.7277 43.175ZM85.7277 37.55C85.7277 37.42 85.7502 37.2975 85.7952 37.1825C85.8452 37.0675 85.9102 36.9675 85.9902 36.8825C86.0752 36.7975 86.1752 36.73 86.2902 36.68C86.4052 36.63 86.5277 36.605 86.6577 36.605C86.7877 36.605 86.9102 36.63 87.0252 36.68C87.1402 36.73 87.2402 36.7975 87.3252 36.8825C87.4102 36.9675 87.4777 37.0675 87.5277 37.1825C87.5777 37.2975 87.6027 37.42 87.6027 37.55C87.6027 37.685 87.5777 37.81 87.5277 37.925C87.4777 38.035 87.4102 38.1325 87.3252 38.2175C87.2402 38.3025 87.1402 38.37 87.0252 38.42C86.9102 38.465 86.7877 38.4875 86.6577 38.4875C86.5277 38.4875 86.4052 38.465 86.2902 38.42C86.1752 38.37 86.0752 38.3025 85.9902 38.2175C85.9102 38.1325 85.8452 38.035 85.7952 37.925C85.7502 37.81 85.7277 37.685 85.7277 37.55Z" fill="#3B4E57"/>
<path d="M54.0025 84.815L53.995 86H47.3725V75.2525H53.995V76.4375H48.8275V80.0075H53.0125V81.1475H48.8275V84.815H54.0025ZM55.2096 86V78.4025H56.0121C56.2021 78.4025 56.3196 78.495 56.3646 78.68L56.4621 79.46C56.7421 79.115 57.0571 78.8325 57.4071 78.6125C57.7571 78.3925 58.1621 78.2825 58.6221 78.2825C59.1321 78.2825 59.5446 78.425 59.8596 78.71C60.1796 78.995 60.4096 79.38 60.5496 79.865C60.6596 79.59 60.7996 79.3525 60.9696 79.1525C61.1446 78.9525 61.3396 78.7875 61.5546 78.6575C61.7696 78.5275 61.9971 78.4325 62.2371 78.3725C62.4821 78.3125 62.7296 78.2825 62.9796 78.2825C63.3796 78.2825 63.7346 78.3475 64.0446 78.4775C64.3596 78.6025 64.6246 78.7875 64.8396 79.0325C65.0596 79.2775 65.2271 79.58 65.3421 79.94C65.4571 80.295 65.5146 80.7025 65.5146 81.1625V86H64.1721V81.1625C64.1721 80.5675 64.0421 80.1175 63.7821 79.8125C63.5221 79.5025 63.1471 79.3475 62.6571 79.3475C62.4371 79.3475 62.2271 79.3875 62.0271 79.4675C61.8321 79.5425 61.6596 79.655 61.5096 79.805C61.3596 79.955 61.2396 80.145 61.1496 80.375C61.0646 80.6 61.0221 80.8625 61.0221 81.1625V86H59.6796V81.1625C59.6796 80.5525 59.5571 80.0975 59.3121 79.7975C59.0671 79.4975 58.7096 79.3475 58.2396 79.3475C57.9096 79.3475 57.6046 79.4375 57.3246 79.6175C57.0446 79.7925 56.7871 80.0325 56.5521 80.3375V86H55.2096ZM71.3611 82.58C70.7461 82.6 70.2211 82.65 69.7861 82.73C69.3561 82.805 69.0036 82.905 68.7286 83.03C68.4586 83.155 68.2611 83.3025 68.1361 83.4725C68.0161 83.6425 67.9561 83.8325 67.9561 84.0425C67.9561 84.2425 67.9886 84.415 68.0536 84.56C68.1186 84.705 68.2061 84.825 68.3161 84.92C68.4311 85.01 68.5636 85.0775 68.7136 85.1225C68.8686 85.1625 69.0336 85.1825 69.2086 85.1825C69.4436 85.1825 69.6586 85.16 69.8536 85.115C70.0486 85.065 70.2311 84.995 70.4011 84.905C70.5761 84.815 70.7411 84.7075 70.8961 84.5825C71.0561 84.4575 71.2111 84.315 71.3611 84.155V82.58ZM67.0486 79.475C67.4686 79.07 67.9211 78.7675 68.4061 78.5675C68.8911 78.3675 69.4286 78.2675 70.0186 78.2675C70.4436 78.2675 70.8211 78.3375 71.1511 78.4775C71.4811 78.6175 71.7586 78.8125 71.9836 79.0625C72.2086 79.3125 72.3786 79.615 72.4936 79.97C72.6086 80.325 72.6661 80.715 72.6661 81.14V86H72.0736C71.9436 86 71.8436 85.98 71.7736 85.94C71.7036 85.895 71.6486 85.81 71.6086 85.685L71.4586 84.965C71.2586 85.15 71.0636 85.315 70.8736 85.46C70.6836 85.6 70.4836 85.72 70.2736 85.82C70.0636 85.915 69.8386 85.9875 69.5986 86.0375C69.3636 86.0925 69.1011 86.12 68.8111 86.12C68.5161 86.12 68.2386 86.08 67.9786 86C67.7186 85.915 67.4911 85.79 67.2961 85.625C67.1061 85.46 66.9536 85.2525 66.8386 85.0025C66.7286 84.7475 66.6736 84.4475 66.6736 84.1025C66.6736 83.8025 66.7561 83.515 66.9211 83.24C67.0861 82.96 67.3536 82.7125 67.7236 82.4975C68.0936 82.2825 68.5761 82.1075 69.1711 81.9725C69.7661 81.8325 70.4961 81.7525 71.3611 81.7325V81.14C71.3611 80.55 71.2336 80.105 70.9786 79.805C70.7236 79.5 70.3511 79.3475 69.8611 79.3475C69.5311 79.3475 69.2536 79.39 69.0286 79.475C68.8086 79.555 68.6161 79.6475 68.4511 79.7525C68.2911 79.8525 68.1511 79.945 68.0311 80.03C67.9161 80.11 67.8011 80.15 67.6861 80.15C67.5961 80.15 67.5186 80.1275 67.4536 80.0825C67.3886 80.0325 67.3336 79.9725 67.2886 79.9025L67.0486 79.475ZM75.8097 78.4025V86H74.4747V78.4025H75.8097ZM76.0947 76.0175C76.0947 76.1475 76.0672 76.27 76.0122 76.385C75.9622 76.495 75.8922 76.595 75.8022 76.685C75.7172 76.77 75.6147 76.8375 75.4947 76.8875C75.3797 76.9375 75.2572 76.9625 75.1272 76.9625C74.9972 76.9625 74.8747 76.9375 74.7597 76.8875C74.6497 76.8375 74.5522 76.77 74.4672 76.685C74.3822 76.595 74.3147 76.495 74.2647 76.385C74.2147 76.27 74.1897 76.1475 74.1897 76.0175C74.1897 75.8875 74.2147 75.765 74.2647 75.65C74.3147 75.53 74.3822 75.4275 74.4672 75.3425C74.5522 75.2525 74.6497 75.1825 74.7597 75.1325C74.8747 75.0825 74.9972 75.0575 75.1272 75.0575C75.2572 75.0575 75.3797 75.0825 75.4947 75.1325C75.6147 75.1825 75.7172 75.2525 75.8022 75.3425C75.8922 75.4275 75.9622 75.53 76.0122 75.65C76.0672 75.765 76.0947 75.8875 76.0947 76.0175ZM79.0832 74.9525V86H77.7482V74.9525H79.0832ZM80.8281 85.175C80.8281 85.045 80.8506 84.9225 80.8956 84.8075C80.9456 84.6925 81.0106 84.5925 81.0906 84.5075C81.1756 84.4225 81.2756 84.355 81.3906 84.305C81.5056 84.255 81.6281 84.23 81.7581 84.23C81.8881 84.23 82.0106 84.255 82.1256 84.305C82.2406 84.355 82.3406 84.4225 82.4256 84.5075C82.5106 84.5925 82.5781 84.6925 82.6281 84.8075C82.6781 84.9225 82.7031 85.045 82.7031 85.175C82.7031 85.31 82.6781 85.435 82.6281 85.55C82.5781 85.66 82.5106 85.7575 82.4256 85.8425C82.3406 85.9275 82.2406 85.9925 82.1256 86.0375C82.0106 86.0875 81.8881 86.1125 81.7581 86.1125C81.6281 86.1125 81.5056 86.0875 81.3906 86.0375C81.2756 85.9925 81.1756 85.9275 81.0906 85.8425C81.0106 85.7575 80.9456 85.66 80.8956 85.55C80.8506 85.435 80.8281 85.31 80.8281 85.175ZM80.8281 79.55C80.8281 79.42 80.8506 79.2975 80.8956 79.1825C80.9456 79.0675 81.0106 78.9675 81.0906 78.8825C81.1756 78.7975 81.2756 78.73 81.3906 78.68C81.5056 78.63 81.6281 78.605 81.7581 78.605C81.8881 78.605 82.0106 78.63 82.1256 78.68C82.2406 78.73 82.3406 78.7975 82.4256 78.8825C82.5106 78.9675 82.5781 79.0675 82.6281 79.1825C82.6781 79.2975 82.7031 79.42 82.7031 79.55C82.7031 79.685 82.6781 79.81 82.6281 79.925C82.5781 80.035 82.5106 80.1325 82.4256 80.2175C82.3406 80.3025 82.2406 80.37 82.1256 80.42C82.0106 80.465 81.8881 80.4875 81.7581 80.4875C81.6281 80.4875 81.5056 80.465 81.3906 80.42C81.2756 80.37 81.1756 80.3025 81.0906 80.2175C81.0106 80.1325 80.9456 80.035 80.8956 79.925C80.8506 79.81 80.8281 79.685 80.8281 79.55Z" fill="#3B4E57"/>
<path d="M54.64 120.475H51.16V130H49.7125V120.475H46.225V119.252H54.64V120.475ZM58.8738 125.372C58.8738 125.062 58.8288 124.78 58.7388 124.525C58.6538 124.265 58.5263 124.042 58.3563 123.857C58.1912 123.667 57.9887 123.522 57.7488 123.422C57.5088 123.317 57.2363 123.265 56.9312 123.265C56.2912 123.265 55.7837 123.452 55.4087 123.827C55.0387 124.197 54.8087 124.712 54.7187 125.372H58.8738ZM59.9538 128.935C59.7888 129.135 59.5913 129.31 59.3613 129.46C59.1313 129.605 58.8838 129.725 58.6188 129.82C58.3588 129.915 58.0888 129.985 57.8088 130.03C57.5288 130.08 57.2513 130.105 56.9763 130.105C56.4513 130.105 55.9662 130.017 55.5212 129.842C55.0812 129.662 54.6987 129.402 54.3737 129.062C54.0537 128.717 53.8037 128.292 53.6237 127.787C53.4437 127.282 53.3537 126.702 53.3537 126.047C53.3537 125.517 53.4337 125.022 53.5937 124.562C53.7587 124.102 53.9937 123.705 54.2987 123.37C54.6037 123.03 54.9762 122.765 55.4162 122.575C55.8562 122.38 56.3512 122.282 56.9013 122.282C57.3563 122.282 57.7762 122.36 58.1613 122.515C58.5513 122.665 58.8863 122.885 59.1663 123.175C59.4513 123.46 59.6737 123.815 59.8338 124.24C59.9938 124.66 60.0738 125.14 60.0738 125.68C60.0738 125.89 60.0513 126.03 60.0063 126.1C59.9613 126.17 59.8763 126.205 59.7513 126.205H54.6737C54.6887 126.685 54.7537 127.102 54.8688 127.457C54.9887 127.812 55.1537 128.11 55.3637 128.35C55.5737 128.585 55.8237 128.762 56.1138 128.882C56.4037 128.997 56.7287 129.055 57.0888 129.055C57.4237 129.055 57.7112 129.017 57.9513 128.942C58.1963 128.862 58.4063 128.777 58.5813 128.687C58.7563 128.597 58.9013 128.515 59.0163 128.44C59.1363 128.36 59.2388 128.32 59.3238 128.32C59.4338 128.32 59.5188 128.362 59.5788 128.447L59.9538 128.935ZM62.7936 118.952V130H61.4586V118.952H62.7936ZM69.7435 125.372C69.7435 125.062 69.6985 124.78 69.6085 124.525C69.5235 124.265 69.396 124.042 69.226 123.857C69.061 123.667 68.8585 123.522 68.6185 123.422C68.3785 123.317 68.106 123.265 67.801 123.265C67.161 123.265 66.6535 123.452 66.2785 123.827C65.9085 124.197 65.6785 124.712 65.5885 125.372H69.7435ZM70.8235 128.935C70.6585 129.135 70.461 129.31 70.231 129.46C70.001 129.605 69.7535 129.725 69.4885 129.82C69.2285 129.915 68.9585 129.985 68.6785 130.03C68.3985 130.08 68.121 130.105 67.846 130.105C67.321 130.105 66.836 130.017 66.391 129.842C65.951 129.662 65.5685 129.402 65.2435 129.062C64.9235 128.717 64.6735 128.292 64.4935 127.787C64.3135 127.282 64.2235 126.702 64.2235 126.047C64.2235 125.517 64.3035 125.022 64.4635 124.562C64.6285 124.102 64.8635 123.705 65.1685 123.37C65.4735 123.03 65.846 122.765 66.286 122.575C66.726 122.38 67.221 122.282 67.771 122.282C68.226 122.282 68.646 122.36 69.031 122.515C69.421 122.665 69.756 122.885 70.036 123.175C70.321 123.46 70.5435 123.815 70.7035 124.24C70.8635 124.66 70.9435 125.14 70.9435 125.68C70.9435 125.89 70.921 126.03 70.876 126.1C70.831 126.17 70.746 126.205 70.621 126.205H65.5435C65.5585 126.685 65.6235 127.102 65.7385 127.457C65.8585 127.812 66.0235 128.11 66.2335 128.35C66.4435 128.585 66.6935 128.762 66.9835 128.882C67.2735 128.997 67.5985 129.055 67.9585 129.055C68.2935 129.055 68.581 129.017 68.821 128.942C69.066 128.862 69.276 128.777 69.451 128.687C69.626 128.597 69.771 128.515 69.886 128.44C70.006 128.36 70.1085 128.32 70.1935 128.32C70.3035 128.32 70.3885 128.362 70.4485 128.447L70.8235 128.935ZM72.705 130V123.542L71.865 123.445C71.76 123.42 71.6725 123.382 71.6025 123.332C71.5375 123.277 71.505 123.2 71.505 123.1V122.552H72.705V121.817C72.705 121.382 72.765 120.997 72.885 120.662C73.01 120.322 73.185 120.037 73.41 119.807C73.64 119.572 73.915 119.395 74.235 119.275C74.555 119.155 74.915 119.095 75.315 119.095C75.655 119.095 75.9675 119.145 76.2525 119.245L76.2225 119.912C76.2125 120.032 76.145 120.097 76.02 120.107C75.9 120.117 75.7375 120.122 75.5325 120.122C75.3025 120.122 75.0925 120.152 74.9025 120.212C74.7175 120.272 74.5575 120.37 74.4225 120.505C74.2875 120.64 74.1825 120.817 74.1075 121.037C74.0375 121.257 74.0025 121.53 74.0025 121.855V122.552H76.1925V123.52H74.0475V130H72.705ZM80.1223 122.282C80.6773 122.282 81.1773 122.375 81.6223 122.56C82.0673 122.745 82.4473 123.007 82.7623 123.347C83.0773 123.687 83.3173 124.1 83.4823 124.585C83.6523 125.065 83.7373 125.602 83.7373 126.197C83.7373 126.797 83.6523 127.337 83.4823 127.817C83.3173 128.297 83.0773 128.707 82.7623 129.047C82.4473 129.387 82.0673 129.65 81.6223 129.835C81.1773 130.015 80.6773 130.105 80.1223 130.105C79.5623 130.105 79.0573 130.015 78.6073 129.835C78.1623 129.65 77.7823 129.387 77.4673 129.047C77.1523 128.707 76.9098 128.297 76.7398 127.817C76.5748 127.337 76.4923 126.797 76.4923 126.197C76.4923 125.602 76.5748 125.065 76.7398 124.585C76.9098 124.1 77.1523 123.687 77.4673 123.347C77.7823 123.007 78.1623 122.745 78.6073 122.56C79.0573 122.375 79.5623 122.282 80.1223 122.282ZM80.1223 129.062C80.8723 129.062 81.4323 128.812 81.8023 128.312C82.1723 127.807 82.3573 127.105 82.3573 126.205C82.3573 125.3 82.1723 124.595 81.8023 124.09C81.4323 123.585 80.8723 123.332 80.1223 123.332C79.7423 123.332 79.4098 123.397 79.1248 123.527C78.8448 123.657 78.6098 123.845 78.4198 124.09C78.2348 124.335 78.0948 124.637 77.9998 124.997C77.9098 125.352 77.8648 125.755 77.8648 126.205C77.8648 127.105 78.0498 127.807 78.4198 128.312C78.7948 128.812 79.3623 129.062 80.1223 129.062ZM86.3905 123.505C86.5555 123.32 86.7305 123.152 86.9155 123.002C87.1005 122.852 87.2955 122.725 87.5005 122.62C87.7105 122.51 87.9305 122.427 88.1605 122.372C88.3955 122.312 88.648 122.282 88.918 122.282C89.333 122.282 89.698 122.352 90.013 122.492C90.333 122.627 90.598 122.822 90.808 123.077C91.023 123.327 91.1855 123.63 91.2955 123.985C91.4055 124.34 91.4605 124.732 91.4605 125.162V130H90.118V125.162C90.118 124.587 89.9855 124.142 89.7205 123.827C89.4605 123.507 89.063 123.347 88.528 123.347C88.133 123.347 87.763 123.442 87.418 123.632C87.078 123.822 86.763 124.08 86.473 124.405V130H85.1305V122.402H85.933C86.123 122.402 86.2405 122.495 86.2855 122.68L86.3905 123.505ZM98.2798 125.372C98.2798 125.062 98.2348 124.78 98.1448 124.525C98.0598 124.265 97.9323 124.042 97.7623 123.857C97.5973 123.667 97.3948 123.522 97.1548 123.422C96.9148 123.317 96.6423 123.265 96.3373 123.265C95.6973 123.265 95.1898 123.452 94.8148 123.827C94.4448 124.197 94.2148 124.712 94.1248 125.372H98.2798ZM99.3598 128.935C99.1948 129.135 98.9973 129.31 98.7673 129.46C98.5373 129.605 98.2898 129.725 98.0248 129.82C97.7648 129.915 97.4948 129.985 97.2148 130.03C96.9348 130.08 96.6573 130.105 96.3823 130.105C95.8573 130.105 95.3723 130.017 94.9273 129.842C94.4873 129.662 94.1048 129.402 93.7798 129.062C93.4598 128.717 93.2098 128.292 93.0298 127.787C92.8498 127.282 92.7598 126.702 92.7598 126.047C92.7598 125.517 92.8398 125.022 92.9998 124.562C93.1648 124.102 93.3998 123.705 93.7048 123.37C94.0098 123.03 94.3823 122.765 94.8223 122.575C95.2623 122.38 95.7573 122.282 96.3073 122.282C96.7623 122.282 97.1823 122.36 97.5673 122.515C97.9573 122.665 98.2923 122.885 98.5723 123.175C98.8573 123.46 99.0798 123.815 99.2398 124.24C99.3998 124.66 99.4798 125.14 99.4798 125.68C99.4798 125.89 99.4573 126.03 99.4123 126.1C99.3673 126.17 99.2823 126.205 99.1573 126.205H94.0798C94.0948 126.685 94.1598 127.102 94.2748 127.457C94.3948 127.812 94.5598 128.11 94.7698 128.35C94.9798 128.585 95.2298 128.762 95.5198 128.882C95.8098 128.997 96.1348 129.055 96.4948 129.055C96.8298 129.055 97.1173 129.017 97.3573 128.942C97.6023 128.862 97.8123 128.777 97.9873 128.687C98.1623 128.597 98.3073 128.515 98.4223 128.44C98.5423 128.36 98.6448 128.32 98.7298 128.32C98.8398 128.32 98.9248 128.362 98.9848 128.447L99.3598 128.935ZM100.7 129.175C100.7 129.045 100.722 128.922 100.767 128.807C100.817 128.692 100.882 128.592 100.962 128.507C101.047 128.422 101.147 128.355 101.262 128.305C101.377 128.255 101.5 128.23 101.63 128.23C101.76 128.23 101.882 128.255 101.997 128.305C102.112 128.355 102.212 128.422 102.297 128.507C102.382 128.592 102.45 128.692 102.5 128.807C102.55 128.922 102.575 129.045 102.575 129.175C102.575 129.31 102.55 129.435 102.5 129.55C102.45 129.66 102.382 129.757 102.297 129.842C102.212 129.927 102.112 129.992 101.997 130.038C101.882 130.088 101.76 130.113 101.63 130.113C101.5 130.113 101.377 130.088 101.262 130.038C101.147 129.992 101.047 129.927 100.962 129.842C100.882 129.757 100.817 129.66 100.767 129.55C100.722 129.435 100.7 129.31 100.7 129.175ZM100.7 123.55C100.7 123.42 100.722 123.297 100.767 123.182C100.817 123.067 100.882 122.967 100.962 122.882C101.047 122.797 101.147 122.73 101.262 122.68C101.377 122.63 101.5 122.605 101.63 122.605C101.76 122.605 101.882 122.63 101.997 122.68C102.112 122.73 102.212 122.797 102.297 122.882C102.382 122.967 102.45 123.067 102.5 123.182C102.55 123.297 102.575 123.42 102.575 123.55C102.575 123.685 102.55 123.81 102.5 123.925C102.45 124.035 102.382 124.132 102.297 124.217C102.212 124.302 102.112 124.37 101.997 124.42C101.882 124.465 101.76 124.487 101.63 124.487C101.5 124.487 101.377 124.465 101.262 124.42C101.147 124.37 101.047 124.302 100.962 124.217C100.882 124.132 100.817 124.035 100.767 123.925C100.722 123.81 100.7 123.685 100.7 123.55Z" fill="#3B4E57"/>
<rect x="27" y="160" width="396" height="43" rx="6" fill="#3B4E57"/>
<path d="M190.465 172.52V178.535H198.055V181.64H190.465V187.775H200.095V191H186.415V169.31H200.095V172.52H190.465ZM205.629 177.5C205.939 177.19 206.264 176.905 206.604 176.645C206.954 176.375 207.319 176.15 207.699 175.97C208.089 175.78 208.504 175.635 208.944 175.535C209.384 175.425 209.864 175.37 210.384 175.37C211.224 175.37 211.969 175.515 212.619 175.805C213.269 176.085 213.809 176.485 214.239 177.005C214.679 177.515 215.009 178.13 215.229 178.85C215.459 179.56 215.574 180.345 215.574 181.205V191H211.869V181.205C211.869 180.265 211.654 179.54 211.224 179.03C210.794 178.51 210.139 178.25 209.259 178.25C208.619 178.25 208.019 178.395 207.459 178.685C206.899 178.975 206.369 179.37 205.869 179.87V191H202.164V175.61H204.429C204.909 175.61 205.224 175.835 205.374 176.285L205.629 177.5ZM232.021 175.61L225.916 191H222.556L216.451 175.61H219.511C219.791 175.61 220.021 175.675 220.201 175.805C220.391 175.935 220.516 176.1 220.576 176.3L223.546 184.52C223.706 185 223.846 185.47 223.966 185.93C224.086 186.39 224.191 186.85 224.281 187.31C224.381 186.85 224.491 186.39 224.611 185.93C224.731 185.47 224.876 185 225.046 184.52L228.076 176.3C228.146 176.1 228.271 175.935 228.451 175.805C228.631 175.675 228.846 175.61 229.096 175.61H232.021ZM237.235 175.61V191H233.515V175.61H237.235ZM237.745 171.125C237.745 171.445 237.68 171.745 237.55 172.025C237.42 172.305 237.245 172.55 237.025 172.76C236.815 172.97 236.565 173.14 236.275 173.27C235.985 173.39 235.675 173.45 235.345 173.45C235.025 173.45 234.72 173.39 234.43 173.27C234.15 173.14 233.905 172.97 233.695 172.76C233.485 172.55 233.315 172.305 233.185 172.025C233.065 171.745 233.005 171.445 233.005 171.125C233.005 170.795 233.065 170.485 233.185 170.195C233.315 169.905 233.485 169.655 233.695 169.445C233.905 169.235 234.15 169.07 234.43 168.95C234.72 168.82 235.025 168.755 235.345 168.755C235.675 168.755 235.985 168.82 236.275 168.95C236.565 169.07 236.815 169.235 237.025 169.445C237.245 169.655 237.42 169.905 237.55 170.195C237.68 170.485 237.745 170.795 237.745 171.125ZM248.542 184.43C247.472 184.48 246.572 184.575 245.842 184.715C245.112 184.845 244.527 185.015 244.087 185.225C243.647 185.435 243.332 185.68 243.142 185.96C242.952 186.24 242.857 186.545 242.857 186.875C242.857 187.525 243.047 187.99 243.427 188.27C243.817 188.55 244.322 188.69 244.942 188.69C245.702 188.69 246.357 188.555 246.907 188.285C247.467 188.005 248.012 187.585 248.542 187.025V184.43ZM240.052 177.755C241.822 176.135 243.952 175.325 246.442 175.325C247.342 175.325 248.147 175.475 248.857 175.775C249.567 176.065 250.167 176.475 250.657 177.005C251.147 177.525 251.517 178.15 251.767 178.88C252.027 179.61 252.157 180.41 252.157 181.28V191H250.477C250.127 191 249.857 190.95 249.667 190.85C249.477 190.74 249.327 190.525 249.217 190.205L248.887 189.095C248.497 189.445 248.117 189.755 247.747 190.025C247.377 190.285 246.992 190.505 246.592 190.685C246.192 190.865 245.762 191 245.302 191.09C244.852 191.19 244.352 191.24 243.802 191.24C243.152 191.24 242.552 191.155 242.002 190.985C241.452 190.805 240.977 190.54 240.577 190.19C240.177 189.84 239.867 189.405 239.647 188.885C239.427 188.365 239.317 187.76 239.317 187.07C239.317 186.68 239.382 186.295 239.512 185.915C239.642 185.525 239.852 185.155 240.142 184.805C240.442 184.455 240.827 184.125 241.297 183.815C241.767 183.505 242.342 183.235 243.022 183.005C243.712 182.775 244.512 182.59 245.422 182.45C246.332 182.3 247.372 182.21 248.542 182.18V181.28C248.542 180.25 248.322 179.49 247.882 179C247.442 178.5 246.807 178.25 245.977 178.25C245.377 178.25 244.877 178.32 244.477 178.46C244.087 178.6 243.742 178.76 243.442 178.94C243.142 179.11 242.867 179.265 242.617 179.405C242.377 179.545 242.107 179.615 241.807 179.615C241.547 179.615 241.327 179.55 241.147 179.42C240.967 179.28 240.822 179.12 240.712 178.94L240.052 177.755ZM258.542 178.28C259.022 177.36 259.592 176.64 260.252 176.12C260.912 175.59 261.692 175.325 262.592 175.325C263.302 175.325 263.872 175.48 264.302 175.79L264.062 178.565C264.012 178.745 263.937 178.875 263.837 178.955C263.747 179.025 263.622 179.06 263.462 179.06C263.312 179.06 263.087 179.035 262.787 178.985C262.497 178.935 262.212 178.91 261.932 178.91C261.522 178.91 261.157 178.97 260.837 179.09C260.517 179.21 260.227 179.385 259.967 179.615C259.717 179.835 259.492 180.105 259.292 180.425C259.102 180.745 258.922 181.11 258.752 181.52V191H255.047V175.61H257.222C257.602 175.61 257.867 175.68 258.017 175.82C258.167 175.95 258.267 176.19 258.317 176.54L258.542 178.28Z" fill="#D9D9D9"/>
</svg>
