<svg width="231" height="51" viewBox="0 0 231 51" fill="none" xmlns="http://www.w3.org/2000/svg">
<rect width="231" height="51" rx="10" fill="#3B4E57"/>
<path d="M68.7316 26.6C68.7316 27.225 68.8166 27.785 68.9866 28.28C69.1566 28.775 69.3991 29.195 69.7141 29.54C70.0291 29.88 70.4091 30.1425 70.8541 30.3275C71.2991 30.5075 71.7966 30.5975 72.3466 30.5975C72.9016 30.5975 73.4016 30.5075 73.8466 30.3275C74.2916 30.1425 74.6691 29.88 74.9791 29.54C75.2941 29.195 75.5341 28.775 75.6991 28.28C75.8691 27.785 75.9541 27.225 75.9541 26.6C75.9541 25.98 75.8691 25.4225 75.6991 24.9275C75.5341 24.4325 75.2941 24.0125 74.9791 23.6675C74.6691 23.3225 74.2916 23.0575 73.8466 22.8725C73.4016 22.6875 72.9016 22.595 72.3466 22.595C71.7966 22.595 71.2991 22.6875 70.8541 22.8725C70.4091 23.0575 70.0291 23.3225 69.7141 23.6675C69.3991 24.0125 69.1566 24.4325 68.9866 24.9275C68.8166 25.4225 68.7316 25.98 68.7316 26.6ZM78.2791 34.16H76.8391C76.6241 34.16 76.4341 34.13 76.2691 34.07C76.1041 34.015 75.9516 33.9125 75.8116 33.7625L74.0866 31.865C73.5466 32.03 72.9666 32.1125 72.3466 32.1125C71.5416 32.1125 70.8066 31.975 70.1416 31.7C69.4816 31.425 68.9141 31.045 68.4391 30.56C67.9641 30.07 67.5966 29.4875 67.3366 28.8125C67.0766 28.1375 66.9466 27.4 66.9466 26.6C66.9466 25.8 67.0766 25.0625 67.3366 24.3875C67.5966 23.7125 67.9641 23.13 68.4391 22.64C68.9141 22.15 69.4816 21.7675 70.1416 21.4925C70.8066 21.2175 71.5416 21.08 72.3466 21.08C73.1566 21.08 73.8916 21.2175 74.5516 21.4925C75.2166 21.7675 75.7841 22.15 76.2541 22.64C76.7291 23.13 77.0966 23.7125 77.3566 24.3875C77.6166 25.0625 77.7466 25.8 77.7466 26.6C77.7466 27.095 77.6966 27.5675 77.5966 28.0175C77.4966 28.4625 77.3516 28.88 77.1616 29.27C76.9716 29.655 76.7391 30.01 76.4641 30.335C76.1891 30.655 75.8766 30.935 75.5266 31.175L78.2791 34.16ZM84.9594 24.35V32H83.9844C83.7694 32 83.6319 31.8975 83.5719 31.6925L83.4519 30.98C83.2919 31.15 83.1219 31.305 82.9419 31.445C82.7669 31.585 82.5794 31.705 82.3794 31.805C82.1794 31.905 81.9644 31.9825 81.7344 32.0375C81.5094 32.0925 81.2669 32.12 81.0069 32.12C80.5869 32.12 80.2169 32.05 79.8969 31.91C79.5769 31.77 79.3069 31.5725 79.0869 31.3175C78.8719 31.0625 78.7094 30.7575 78.5994 30.4025C78.4894 30.0425 78.4344 29.6475 78.4344 29.2175V24.35H80.0469V29.2175C80.0469 29.7325 80.1644 30.1325 80.3994 30.4175C80.6394 30.7025 81.0019 30.845 81.4869 30.845C81.8419 30.845 82.1719 30.765 82.4769 30.605C82.7869 30.44 83.0769 30.215 83.3469 29.93V24.35H84.9594ZM91.1851 27.3125C91.1851 27.0425 91.1451 26.7925 91.0651 26.5625C90.9901 26.3275 90.8776 26.125 90.7276 25.955C90.5776 25.78 90.3901 25.645 90.1651 25.55C89.9451 25.45 89.6901 25.4 89.4001 25.4C88.8151 25.4 88.3551 25.5675 88.0201 25.9025C87.6851 26.2375 87.4726 26.7075 87.3826 27.3125H91.1851ZM87.3376 28.3025C87.3576 28.7375 87.4251 29.115 87.5401 29.435C87.6551 29.75 87.8076 30.0125 87.9976 30.2225C88.1926 30.4325 88.4226 30.59 88.6876 30.695C88.9576 30.795 89.2576 30.845 89.5876 30.845C89.9026 30.845 90.1751 30.81 90.4051 30.74C90.6351 30.665 90.8351 30.585 91.0051 30.5C91.1751 30.41 91.3201 30.33 91.4401 30.26C91.5601 30.185 91.6701 30.1475 91.7701 30.1475C91.9001 30.1475 92.0001 30.1975 92.0701 30.2975L92.5276 30.89C92.3376 31.115 92.1226 31.305 91.8826 31.46C91.6426 31.615 91.3876 31.7425 91.1176 31.8425C90.8476 31.9375 90.5701 32.005 90.2851 32.045C90.0001 32.09 89.7226 32.1125 89.4526 32.1125C88.9226 32.1125 88.4301 32.025 87.9751 31.85C87.5251 31.67 87.1326 31.4075 86.7976 31.0625C86.4676 30.7175 86.2076 30.29 86.0176 29.78C85.8326 29.27 85.7401 28.6825 85.7401 28.0175C85.7401 27.4875 85.8226 26.9925 85.9876 26.5325C86.1576 26.0725 86.3976 25.6725 86.7076 25.3325C87.0226 24.9925 87.4026 24.725 87.8476 24.53C88.2976 24.33 88.8051 24.23 89.3701 24.23C89.8401 24.23 90.2751 24.3075 90.6751 24.4625C91.0751 24.6125 91.4201 24.835 91.7101 25.13C92.0001 25.425 92.2251 25.7875 92.3851 26.2175C92.5501 26.6425 92.6326 27.1275 92.6326 27.6725C92.6326 27.9225 92.6051 28.09 92.5501 28.175C92.4951 28.26 92.3951 28.3025 92.2501 28.3025H87.3376ZM94.9088 25.7675C95.1488 25.2825 95.4388 24.9025 95.7788 24.6275C96.1188 24.3475 96.5263 24.2075 97.0013 24.2075C97.1663 24.2075 97.3213 24.2275 97.4663 24.2675C97.6113 24.3025 97.7413 24.3575 97.8563 24.4325L97.7438 25.6475C97.7238 25.7325 97.6913 25.7925 97.6463 25.8275C97.6063 25.8575 97.5513 25.8725 97.4813 25.8725C97.4063 25.8725 97.2988 25.86 97.1588 25.835C97.0188 25.805 96.8713 25.79 96.7163 25.79C96.4913 25.79 96.2913 25.8225 96.1163 25.8875C95.9463 25.9525 95.7913 26.0475 95.6513 26.1725C95.5163 26.2975 95.3963 26.45 95.2913 26.63C95.1863 26.81 95.0888 27.015 94.9988 27.245V32H93.3863V24.35H94.3238C94.4938 24.35 94.6113 24.3825 94.6763 24.4475C94.7413 24.5075 94.7863 24.615 94.8113 24.77L94.9088 25.7675ZM101.217 24.23C101.782 24.23 102.292 24.3225 102.747 24.5075C103.207 24.6925 103.597 24.955 103.917 25.295C104.242 25.635 104.492 26.0475 104.667 26.5325C104.842 27.0175 104.93 27.5625 104.93 28.1675C104.93 28.7725 104.842 29.3175 104.667 29.8025C104.492 30.2875 104.242 30.7025 103.917 31.0475C103.597 31.3875 103.207 31.65 102.747 31.835C102.292 32.02 101.782 32.1125 101.217 32.1125C100.647 32.1125 100.132 32.02 99.6722 31.835C99.2172 31.65 98.8272 31.3875 98.5022 31.0475C98.1772 30.7025 97.9272 30.2875 97.7522 29.8025C97.5772 29.3175 97.4897 28.7725 97.4897 28.1675C97.4897 27.5625 97.5772 27.0175 97.7522 26.5325C97.9272 26.0475 98.1772 25.635 98.5022 25.295C98.8272 24.955 99.2172 24.6925 99.6722 24.5075C100.132 24.3225 100.647 24.23 101.217 24.23ZM101.217 30.8525C101.907 30.8525 102.42 30.6225 102.755 30.1625C103.095 29.6975 103.265 29.035 103.265 28.175C103.265 27.315 103.095 26.6525 102.755 26.1875C102.42 25.7175 101.907 25.4825 101.217 25.4825C100.517 25.4825 99.9972 25.7175 99.6572 26.1875C99.3172 26.6525 99.1472 27.315 99.1472 28.175C99.1472 29.035 99.3172 29.6975 99.6572 30.1625C99.9972 30.6225 100.517 30.8525 101.217 30.8525ZM114.231 27.95L112.746 24.005C112.626 23.7 112.504 23.3125 112.379 22.8425C112.324 23.0775 112.264 23.295 112.199 23.495C112.134 23.69 112.074 23.8625 112.019 24.0125L110.534 27.95H114.231ZM117.554 32H116.196C116.041 32 115.916 31.9625 115.821 31.8875C115.726 31.8075 115.654 31.71 115.604 31.595L114.704 29.21H110.054L109.154 31.595C109.114 31.695 109.044 31.7875 108.944 31.8725C108.844 31.9575 108.719 32 108.569 32H107.211L111.494 21.2H113.271L117.554 32ZM120.494 28.1075C120.994 28.1075 121.369 27.98 121.619 27.725C121.869 27.47 121.994 27.1375 121.994 26.7275C121.994 26.3075 121.869 25.975 121.619 25.73C121.369 25.485 120.994 25.3625 120.494 25.3625C119.999 25.3625 119.624 25.485 119.369 25.73C119.119 25.975 118.994 26.3075 118.994 26.7275C118.994 26.9275 119.027 27.1125 119.092 27.2825C119.157 27.4525 119.252 27.6 119.377 27.725C119.502 27.845 119.657 27.94 119.842 28.01C120.032 28.075 120.249 28.1075 120.494 28.1075ZM122.737 32.375C122.737 32.205 122.687 32.07 122.587 31.97C122.492 31.865 122.362 31.785 122.197 31.73C122.032 31.67 121.839 31.6275 121.619 31.6025C121.399 31.5725 121.164 31.5525 120.914 31.5425C120.669 31.5275 120.417 31.515 120.157 31.505C119.902 31.49 119.654 31.465 119.414 31.43C119.174 31.555 118.977 31.705 118.822 31.88C118.672 32.055 118.597 32.2575 118.597 32.4875C118.597 32.6375 118.634 32.7775 118.709 32.9075C118.789 33.0375 118.909 33.15 119.069 33.245C119.234 33.34 119.442 33.415 119.692 33.47C119.947 33.525 120.252 33.5525 120.607 33.5525C121.317 33.5525 121.849 33.4425 122.204 33.2225C122.559 33.0025 122.737 32.72 122.737 32.375ZM124.357 24.6275V25.2275C124.357 25.4275 124.237 25.55 123.997 25.595L123.232 25.7225C123.362 26.0125 123.427 26.335 123.427 26.69C123.427 27.065 123.352 27.405 123.202 27.71C123.057 28.015 122.854 28.275 122.594 28.49C122.334 28.705 122.024 28.87 121.664 28.985C121.304 29.1 120.914 29.1575 120.494 29.1575C120.334 29.1575 120.177 29.15 120.022 29.135C119.872 29.115 119.724 29.09 119.579 29.06C119.434 29.145 119.327 29.235 119.257 29.33C119.187 29.425 119.152 29.5225 119.152 29.6225C119.152 29.7875 119.224 29.91 119.369 29.99C119.514 30.07 119.704 30.1275 119.939 30.1625C120.179 30.1975 120.452 30.22 120.757 30.23C121.062 30.24 121.372 30.2575 121.687 30.2825C122.002 30.3075 122.312 30.35 122.617 30.41C122.922 30.465 123.192 30.56 123.427 30.695C123.667 30.825 123.859 31.0025 124.004 31.2275C124.149 31.4525 124.222 31.745 124.222 32.105C124.222 32.435 124.139 32.7575 123.974 33.0725C123.809 33.3875 123.569 33.6675 123.254 33.9125C122.944 34.1575 122.564 34.3525 122.114 34.4975C121.664 34.6475 121.152 34.7225 120.577 34.7225C120.007 34.7225 119.509 34.6675 119.084 34.5575C118.664 34.4475 118.312 34.2975 118.027 34.1075C117.747 33.9225 117.537 33.7075 117.397 33.4625C117.262 33.2175 117.194 32.9625 117.194 32.6975C117.194 32.3375 117.307 32.03 117.532 31.775C117.762 31.52 118.072 31.32 118.462 31.175C118.252 31.075 118.082 30.9375 117.952 30.7625C117.827 30.5875 117.764 30.3575 117.764 30.0725C117.764 29.8475 117.847 29.6125 118.012 29.3675C118.177 29.1225 118.424 28.915 118.754 28.745C118.374 28.535 118.074 28.2575 117.854 27.9125C117.634 27.5625 117.524 27.155 117.524 26.69C117.524 26.31 117.597 25.9675 117.742 25.6625C117.892 25.3575 118.099 25.0975 118.364 24.8825C118.629 24.6675 118.942 24.5025 119.302 24.3875C119.667 24.2725 120.064 24.215 120.494 24.215C121.154 24.215 121.729 24.3525 122.219 24.6275H124.357ZM129.766 27.3125C129.766 27.0425 129.726 26.7925 129.646 26.5625C129.571 26.3275 129.459 26.125 129.309 25.955C129.159 25.78 128.971 25.645 128.746 25.55C128.526 25.45 128.271 25.4 127.981 25.4C127.396 25.4 126.936 25.5675 126.601 25.9025C126.266 26.2375 126.054 26.7075 125.964 27.3125H129.766ZM125.919 28.3025C125.939 28.7375 126.006 29.115 126.121 29.435C126.236 29.75 126.389 30.0125 126.579 30.2225C126.774 30.4325 127.004 30.59 127.269 30.695C127.539 30.795 127.839 30.845 128.169 30.845C128.484 30.845 128.756 30.81 128.986 30.74C129.216 30.665 129.416 30.585 129.586 30.5C129.756 30.41 129.901 30.33 130.021 30.26C130.141 30.185 130.251 30.1475 130.351 30.1475C130.481 30.1475 130.581 30.1975 130.651 30.2975L131.109 30.89C130.919 31.115 130.704 31.305 130.464 31.46C130.224 31.615 129.969 31.7425 129.699 31.8425C129.429 31.9375 129.151 32.005 128.866 32.045C128.581 32.09 128.304 32.1125 128.034 32.1125C127.504 32.1125 127.011 32.025 126.556 31.85C126.106 31.67 125.714 31.4075 125.379 31.0625C125.049 30.7175 124.789 30.29 124.599 29.78C124.414 29.27 124.321 28.6825 124.321 28.0175C124.321 27.4875 124.404 26.9925 124.569 26.5325C124.739 26.0725 124.979 25.6725 125.289 25.3325C125.604 24.9925 125.984 24.725 126.429 24.53C126.879 24.33 127.386 24.23 127.951 24.23C128.421 24.23 128.856 24.3075 129.256 24.4625C129.656 24.6125 130.001 24.835 130.291 25.13C130.581 25.425 130.806 25.7875 130.966 26.2175C131.131 26.6425 131.214 27.1275 131.214 27.6725C131.214 27.9225 131.186 28.09 131.131 28.175C131.076 28.26 130.976 28.3025 130.831 28.3025H125.919ZM133.475 25.3625C133.64 25.1925 133.81 25.04 133.985 24.905C134.165 24.765 134.355 24.645 134.555 24.545C134.755 24.445 134.967 24.3675 135.192 24.3125C135.417 24.2575 135.662 24.23 135.927 24.23C136.347 24.23 136.715 24.3 137.03 24.44C137.35 24.58 137.617 24.7775 137.832 25.0325C138.052 25.2875 138.217 25.595 138.327 25.955C138.437 26.31 138.492 26.7025 138.492 27.1325V32H136.887V27.1325C136.887 26.6175 136.767 26.2175 136.527 25.9325C136.292 25.6475 135.932 25.505 135.447 25.505C135.087 25.505 134.752 25.5875 134.442 25.7525C134.137 25.9175 133.85 26.1425 133.58 26.4275V32H131.967V24.35H132.942C133.162 24.35 133.302 24.4525 133.362 24.6575L133.475 25.3625ZM144.508 26.2325C144.283 25.9425 144.036 25.74 143.766 25.625C143.496 25.51 143.203 25.4525 142.888 25.4525C142.258 25.4525 141.766 25.685 141.411 26.15C141.056 26.61 140.878 27.2925 140.878 28.1975C140.878 28.6675 140.918 29.07 140.998 29.405C141.078 29.735 141.193 30.005 141.343 30.215C141.493 30.425 141.676 30.5775 141.891 30.6725C142.106 30.7675 142.348 30.815 142.618 30.815C143.028 30.815 143.381 30.7275 143.676 30.5525C143.976 30.3725 144.253 30.12 144.508 29.795V26.2325ZM146.121 20.9V32H145.146C144.931 32 144.793 31.8975 144.733 31.6925L144.591 30.86C144.271 31.235 143.906 31.5375 143.496 31.7675C143.091 31.9975 142.618 32.1125 142.078 32.1125C141.648 32.1125 141.258 32.0275 140.908 31.8575C140.558 31.6825 140.258 31.43 140.008 31.1C139.758 30.77 139.563 30.3625 139.423 29.8775C139.288 29.3875 139.221 28.8275 139.221 28.1975C139.221 27.6275 139.296 27.1 139.446 26.615C139.601 26.13 139.821 25.71 140.106 25.355C140.391 24.995 140.736 24.715 141.141 24.515C141.551 24.31 142.008 24.2075 142.513 24.2075C142.963 24.2075 143.346 24.28 143.661 24.425C143.976 24.565 144.258 24.7625 144.508 25.0175V20.9H146.121ZM151.43 28.655C150.855 28.675 150.37 28.7225 149.975 28.7975C149.58 28.8675 149.26 28.96 149.015 29.075C148.77 29.185 148.592 29.3175 148.482 29.4725C148.377 29.6275 148.325 29.7975 148.325 29.9825C148.325 30.1625 148.352 30.3175 148.407 30.4475C148.467 30.5725 148.547 30.6775 148.647 30.7625C148.752 30.8425 148.872 30.9025 149.007 30.9425C149.147 30.9775 149.3 30.995 149.465 30.995C149.885 30.995 150.245 30.9175 150.545 30.7625C150.85 30.6025 151.145 30.3725 151.43 30.0725V28.655ZM147.155 25.415C148.02 24.61 149.05 24.2075 150.245 24.2075C150.685 24.2075 151.075 24.28 151.415 24.425C151.76 24.565 152.047 24.765 152.277 25.025C152.512 25.285 152.69 25.595 152.81 25.955C152.935 26.31 152.997 26.705 152.997 27.14V32H152.277C152.122 32 152.005 31.9775 151.925 31.9325C151.845 31.8825 151.777 31.785 151.722 31.64L151.565 31.0175C151.37 31.1925 151.177 31.35 150.987 31.49C150.797 31.625 150.6 31.74 150.395 31.835C150.195 31.93 149.977 32 149.742 32.045C149.512 32.095 149.257 32.12 148.977 32.12C148.667 32.12 148.377 32.0775 148.107 31.9925C147.842 31.9075 147.612 31.78 147.417 31.61C147.222 31.435 147.067 31.22 146.952 30.965C146.842 30.71 146.787 30.41 146.787 30.065C146.787 29.77 146.865 29.4825 147.02 29.2025C147.18 28.9225 147.44 28.6725 147.8 28.4525C148.165 28.2275 148.642 28.0425 149.232 27.8975C149.827 27.7525 150.56 27.67 151.43 27.65V27.14C151.43 26.59 151.312 26.18 151.077 25.91C150.842 25.64 150.497 25.505 150.042 25.505C149.732 25.505 149.472 25.545 149.262 25.625C149.052 25.7 148.87 25.7825 148.715 25.8725C148.56 25.9625 148.422 26.0475 148.302 26.1275C148.182 26.2025 148.055 26.24 147.92 26.24C147.81 26.24 147.715 26.2125 147.635 26.1575C147.56 26.0975 147.497 26.025 147.447 25.94L147.155 25.415ZM155.659 25.7675C155.899 25.2825 156.189 24.9025 156.529 24.6275C156.869 24.3475 157.276 24.2075 157.751 24.2075C157.916 24.2075 158.071 24.2275 158.216 24.2675C158.361 24.3025 158.491 24.3575 158.606 24.4325L158.494 25.6475C158.474 25.7325 158.441 25.7925 158.396 25.8275C158.356 25.8575 158.301 25.8725 158.231 25.8725C158.156 25.8725 158.049 25.86 157.909 25.835C157.769 25.805 157.621 25.79 157.466 25.79C157.241 25.79 157.041 25.8225 156.866 25.8875C156.696 25.9525 156.541 26.0475 156.401 26.1725C156.266 26.2975 156.146 26.45 156.041 26.63C155.936 26.81 155.839 27.015 155.749 27.245V32H154.136V24.35H155.074C155.244 24.35 155.361 24.3825 155.426 24.4475C155.491 24.5075 155.536 24.615 155.561 24.77L155.659 25.7675Z" fill="#D9D9D9"/>
</svg>
