<svg width="380" height="76" viewBox="0 0 380 76" fill="none" xmlns="http://www.w3.org/2000/svg">
<rect width="341" height="76" rx="38" fill="#3B4E57"/>
<path d="M36.875 42.1433L34.235 34.9283C34.105 34.6083 33.97 34.2283 33.83 33.7883C33.69 33.3483 33.55 32.8733 33.41 32.3633C33.28 32.8733 33.145 33.3533 33.005 33.8033C32.865 34.2433 32.73 34.6283 32.6 34.9583L29.975 42.1433H36.875ZM44 50.3333H40.88C40.53 50.3333 40.245 50.2483 40.025 50.0783C39.805 49.8983 39.64 49.6783 39.53 49.4183L37.91 44.9933H28.925L27.305 49.4183C27.225 49.6483 27.07 49.8583 26.84 50.0483C26.61 50.2383 26.325 50.3333 25.985 50.3333H22.835L31.37 28.6433H35.48L44 50.3333ZM50.6851 42.2633C51.1451 42.2633 51.5451 42.2033 51.8851 42.0833C52.2251 41.9533 52.5051 41.7783 52.7251 41.5583C52.9551 41.3383 53.1251 41.0733 53.2351 40.7633C53.3551 40.4533 53.4151 40.1133 53.4151 39.7433C53.4151 38.9833 53.1851 38.3833 52.7251 37.9433C52.2751 37.4933 51.5951 37.2683 50.6851 37.2683C49.7751 37.2683 49.0901 37.4933 48.6301 37.9433C48.1801 38.3833 47.9551 38.9833 47.9551 39.7433C47.9551 40.1033 48.0101 40.4383 48.1201 40.7483C48.2401 41.0583 48.4101 41.3283 48.6301 41.5583C48.8601 41.7783 49.1451 41.9533 49.4851 42.0833C49.8351 42.2033 50.2351 42.2633 50.6851 42.2633ZM54.8701 51.0233C54.8701 50.7233 54.7801 50.4783 54.6001 50.2883C54.4201 50.0983 54.1751 49.9533 53.8651 49.8533C53.5551 49.7433 53.1901 49.6633 52.7701 49.6133C52.3601 49.5633 51.9201 49.5283 51.4501 49.5083C50.9901 49.4783 50.5101 49.4533 50.0101 49.4333C49.5201 49.4133 49.0401 49.3733 48.5701 49.3133C48.1601 49.5433 47.8251 49.8133 47.5651 50.1233C47.3151 50.4333 47.1901 50.7933 47.1901 51.2033C47.1901 51.4733 47.2551 51.7233 47.3851 51.9533C47.5251 52.1933 47.7401 52.3983 48.0301 52.5683C48.3301 52.7383 48.7151 52.8683 49.1851 52.9583C49.6551 53.0583 50.2301 53.1083 50.9101 53.1083C51.6001 53.1083 52.1951 53.0533 52.6951 52.9433C53.1951 52.8433 53.6051 52.6983 53.9251 52.5083C54.2551 52.3283 54.4951 52.1083 54.6451 51.8483C54.7951 51.5983 54.8701 51.3233 54.8701 51.0233ZM58.5601 35.4683V36.8483C58.5601 37.2883 58.2951 37.5583 57.7651 37.6583L56.3851 37.9133C56.5951 38.4433 56.7001 39.0233 56.7001 39.6533C56.7001 40.4133 56.5451 41.1033 56.2351 41.7233C55.9351 42.3333 55.5151 42.8533 54.9751 43.2833C54.4351 43.7133 53.7951 44.0483 53.0551 44.2883C52.3251 44.5183 51.5351 44.6333 50.6851 44.6333C50.3851 44.6333 50.0951 44.6183 49.8151 44.5883C49.5351 44.5583 49.2601 44.5183 48.9901 44.4683C48.5101 44.7583 48.2701 45.0833 48.2701 45.4433C48.2701 45.7533 48.4101 45.9833 48.6901 46.1333C48.9801 46.2733 49.3601 46.3733 49.8301 46.4333C50.3001 46.4933 50.8351 46.5333 51.4351 46.5533C52.0351 46.5633 52.6501 46.5933 53.2801 46.6433C53.9101 46.6933 54.5251 46.7833 55.1251 46.9133C55.7251 47.0333 56.2601 47.2283 56.7301 47.4983C57.2001 47.7683 57.5751 48.1383 57.8551 48.6083C58.1451 49.0683 58.2901 49.6633 58.2901 50.3933C58.2901 51.0733 58.1201 51.7333 57.7801 52.3733C57.4501 53.0133 56.9651 53.5833 56.3251 54.0833C55.6951 54.5833 54.9151 54.9833 53.9851 55.2833C53.0651 55.5933 52.0151 55.7483 50.8351 55.7483C49.6751 55.7483 48.6651 55.6333 47.8051 55.4033C46.9451 55.1833 46.2301 54.8833 45.6601 54.5033C45.0901 54.1333 44.6651 53.7033 44.3851 53.2133C44.1051 52.7233 43.9651 52.2133 43.9651 51.6833C43.9651 50.9633 44.1801 50.3633 44.6101 49.8833C45.0501 49.3933 45.6501 49.0033 46.4101 48.7133C46.0001 48.5033 45.6751 48.2233 45.4351 47.8733C45.1951 47.5233 45.0751 47.0633 45.0751 46.4933C45.0751 46.2633 45.1151 46.0283 45.1951 45.7883C45.2851 45.5383 45.4101 45.2933 45.5701 45.0533C45.7401 44.8133 45.9501 44.5883 46.2001 44.3783C46.4501 44.1583 46.7451 43.9633 47.0851 43.7933C46.3051 43.3733 45.6901 42.8133 45.2401 42.1133C44.8001 41.4133 44.5801 40.5933 44.5801 39.6533C44.5801 38.8933 44.7301 38.2083 45.0301 37.5983C45.3401 36.9783 45.7651 36.4533 46.3051 36.0233C46.8551 35.5833 47.5001 35.2483 48.2401 35.0183C48.9901 34.7883 49.8051 34.6733 50.6851 34.6733C51.3451 34.6733 51.9651 34.7433 52.5451 34.8833C53.1251 35.0133 53.6551 35.2083 54.1351 35.4683H58.5601ZM69.961 40.8683C69.961 40.3883 69.891 39.9383 69.751 39.5183C69.621 39.0883 69.421 38.7133 69.151 38.3933C68.881 38.0733 68.536 37.8233 68.116 37.6433C67.706 37.4533 67.226 37.3583 66.676 37.3583C65.606 37.3583 64.761 37.6633 64.141 38.2733C63.531 38.8833 63.141 39.7483 62.971 40.8683H69.961ZM62.896 43.1033C62.956 43.8933 63.096 44.5783 63.316 45.1583C63.536 45.7283 63.826 46.2033 64.186 46.5833C64.546 46.9533 64.971 47.2333 65.461 47.4233C65.961 47.6033 66.511 47.6933 67.111 47.6933C67.711 47.6933 68.226 47.6233 68.656 47.4833C69.096 47.3433 69.476 47.1883 69.796 47.0183C70.126 46.8483 70.411 46.6933 70.651 46.5533C70.901 46.4133 71.141 46.3433 71.371 46.3433C71.681 46.3433 71.911 46.4583 72.061 46.6883L73.126 48.0383C72.716 48.5183 72.256 48.9233 71.746 49.2533C71.236 49.5733 70.701 49.8333 70.141 50.0333C69.591 50.2233 69.026 50.3583 68.446 50.4383C67.876 50.5183 67.321 50.5583 66.781 50.5583C65.711 50.5583 64.716 50.3833 63.796 50.0333C62.876 49.6733 62.076 49.1483 61.396 48.4583C60.716 47.7583 60.181 46.8983 59.791 45.8783C59.401 44.8483 59.206 43.6583 59.206 42.3083C59.206 41.2583 59.376 40.2733 59.716 39.3533C60.056 38.4233 60.541 37.6183 61.171 36.9383C61.811 36.2483 62.586 35.7033 63.496 35.3033C64.416 34.9033 65.451 34.7033 66.601 34.7033C67.571 34.7033 68.466 34.8583 69.286 35.1683C70.106 35.4783 70.811 35.9333 71.401 36.5333C71.991 37.1233 72.451 37.8533 72.781 38.7233C73.121 39.5833 73.291 40.5683 73.291 41.6783C73.291 42.2383 73.231 42.6183 73.111 42.8183C72.991 43.0083 72.761 43.1033 72.421 43.1033H62.896ZM78.9364 36.8333C79.2464 36.5233 79.5714 36.2383 79.9114 35.9783C80.2614 35.7083 80.6264 35.4833 81.0064 35.3033C81.3964 35.1133 81.8114 34.9683 82.2514 34.8683C82.6914 34.7583 83.1714 34.7033 83.6914 34.7033C84.5314 34.7033 85.2764 34.8483 85.9264 35.1383C86.5764 35.4183 87.1164 35.8183 87.5464 36.3383C87.9864 36.8483 88.3164 37.4633 88.5364 38.1833C88.7664 38.8933 88.8814 39.6783 88.8814 40.5383V50.3333H85.1764V40.5383C85.1764 39.5983 84.9614 38.8733 84.5314 38.3633C84.1014 37.8433 83.4464 37.5833 82.5664 37.5833C81.9264 37.5833 81.3264 37.7283 80.7664 38.0183C80.2064 38.3083 79.6764 38.7033 79.1764 39.2033V50.3333H75.4714V34.9433H77.7364C78.2164 34.9433 78.5314 35.1683 78.6814 35.6183L78.9364 36.8333ZM101.465 38.8733C101.045 38.3633 100.585 38.0033 100.085 37.7933C99.595 37.5833 99.065 37.4783 98.495 37.4783C97.935 37.4783 97.43 37.5833 96.98 37.7933C96.53 38.0033 96.145 38.3233 95.825 38.7533C95.505 39.1733 95.26 39.7133 95.09 40.3733C94.92 41.0233 94.835 41.7933 94.835 42.6833C94.835 43.5833 94.905 44.3483 95.045 44.9783C95.195 45.5983 95.405 46.1083 95.675 46.5083C95.945 46.8983 96.275 47.1833 96.665 47.3633C97.055 47.5333 97.49 47.6183 97.97 47.6183C98.74 47.6183 99.395 47.4583 99.935 47.1383C100.475 46.8183 100.985 46.3633 101.465 45.7733V38.8733ZM105.17 28.0433V50.3333H102.905C102.415 50.3333 102.105 50.1083 101.975 49.6583L101.66 48.1733C101.04 48.8833 100.325 49.4583 99.515 49.8983C98.715 50.3383 97.78 50.5583 96.71 50.5583C95.87 50.5583 95.1 50.3833 94.4 50.0333C93.7 49.6833 93.095 49.1783 92.585 48.5183C92.085 47.8483 91.695 47.0233 91.415 46.0433C91.145 45.0633 91.01 43.9433 91.01 42.6833C91.01 41.5433 91.165 40.4833 91.475 39.5033C91.785 38.5233 92.23 37.6733 92.81 36.9533C93.39 36.2333 94.085 35.6733 94.895 35.2733C95.705 34.8633 96.615 34.6583 97.625 34.6583C98.485 34.6583 99.22 34.7933 99.83 35.0633C100.44 35.3333 100.985 35.6983 101.465 36.1583V28.0433H105.17ZM116.356 43.7633C115.286 43.8133 114.386 43.9083 113.656 44.0483C112.926 44.1783 112.341 44.3483 111.901 44.5583C111.461 44.7683 111.146 45.0133 110.956 45.2933C110.766 45.5733 110.671 45.8783 110.671 46.2083C110.671 46.8583 110.861 47.3233 111.241 47.6033C111.631 47.8833 112.136 48.0233 112.756 48.0233C113.516 48.0233 114.171 47.8883 114.721 47.6183C115.281 47.3383 115.826 46.9183 116.356 46.3583V43.7633ZM107.866 37.0883C109.636 35.4683 111.766 34.6583 114.256 34.6583C115.156 34.6583 115.961 34.8083 116.671 35.1083C117.381 35.3983 117.981 35.8083 118.471 36.3383C118.961 36.8583 119.331 37.4833 119.581 38.2133C119.841 38.9433 119.971 39.7433 119.971 40.6133V50.3333H118.291C117.941 50.3333 117.671 50.2833 117.481 50.1833C117.291 50.0733 117.141 49.8583 117.031 49.5383L116.701 48.4283C116.311 48.7783 115.931 49.0883 115.561 49.3583C115.191 49.6183 114.806 49.8383 114.406 50.0183C114.006 50.1983 113.576 50.3333 113.116 50.4233C112.666 50.5233 112.166 50.5733 111.616 50.5733C110.966 50.5733 110.366 50.4883 109.816 50.3183C109.266 50.1383 108.791 49.8733 108.391 49.5233C107.991 49.1733 107.681 48.7383 107.461 48.2183C107.241 47.6983 107.131 47.0933 107.131 46.4033C107.131 46.0133 107.196 45.6283 107.326 45.2483C107.456 44.8583 107.666 44.4883 107.956 44.1383C108.256 43.7883 108.641 43.4583 109.111 43.1483C109.581 42.8383 110.156 42.5683 110.836 42.3383C111.526 42.1083 112.326 41.9233 113.236 41.7833C114.146 41.6333 115.186 41.5433 116.356 41.5133V40.6133C116.356 39.5833 116.136 38.8233 115.696 38.3333C115.256 37.8333 114.621 37.5833 113.791 37.5833C113.191 37.5833 112.691 37.6533 112.291 37.7933C111.901 37.9333 111.556 38.0933 111.256 38.2733C110.956 38.4433 110.681 38.5983 110.431 38.7383C110.191 38.8783 109.921 38.9483 109.621 38.9483C109.361 38.9483 109.141 38.8833 108.961 38.7533C108.781 38.6133 108.636 38.4533 108.526 38.2733L107.866 37.0883ZM126.356 37.6133C126.836 36.6933 127.406 35.9733 128.066 35.4533C128.726 34.9233 129.506 34.6583 130.406 34.6583C131.116 34.6583 131.686 34.8133 132.116 35.1233L131.876 37.8983C131.826 38.0783 131.751 38.2083 131.651 38.2883C131.561 38.3583 131.436 38.3933 131.276 38.3933C131.126 38.3933 130.901 38.3683 130.601 38.3183C130.311 38.2683 130.026 38.2433 129.746 38.2433C129.336 38.2433 128.971 38.3033 128.651 38.4233C128.331 38.5433 128.041 38.7183 127.781 38.9483C127.531 39.1683 127.306 39.4383 127.106 39.7583C126.916 40.0783 126.736 40.4433 126.566 40.8533V50.3333H122.861V34.9433H125.036C125.416 34.9433 125.681 35.0133 125.831 35.1533C125.981 35.2833 126.081 35.5233 126.131 35.8733L126.356 37.6133ZM150.552 42.1433L147.912 34.9283C147.782 34.6083 147.647 34.2283 147.507 33.7883C147.367 33.3483 147.227 32.8733 147.087 32.3633C146.957 32.8733 146.822 33.3533 146.682 33.8033C146.542 34.2433 146.407 34.6283 146.277 34.9583L143.652 42.1433H150.552ZM157.677 50.3333H154.557C154.207 50.3333 153.922 50.2483 153.702 50.0783C153.482 49.8983 153.317 49.6783 153.207 49.4183L151.587 44.9933H142.602L140.982 49.4183C140.902 49.6483 140.747 49.8583 140.517 50.0483C140.287 50.2383 140.002 50.3333 139.662 50.3333H136.512L145.047 28.6433H149.157L157.677 50.3333ZM162.929 50.5733C161.589 50.5733 160.559 50.1983 159.839 49.4483C159.129 48.6883 158.774 47.6433 158.774 46.3133V37.7183H157.199C156.999 37.7183 156.829 37.6533 156.689 37.5233C156.549 37.3933 156.479 37.1983 156.479 36.9383V35.4683L158.954 35.0633L159.734 30.8633C159.784 30.6633 159.879 30.5083 160.019 30.3983C160.159 30.2883 160.339 30.2333 160.559 30.2333H162.479V35.0783H166.589V37.7183H162.479V46.0583C162.479 46.5383 162.594 46.9133 162.824 47.1833C163.064 47.4533 163.389 47.5883 163.799 47.5883C164.029 47.5883 164.219 47.5633 164.369 47.5133C164.529 47.4533 164.664 47.3933 164.774 47.3333C164.894 47.2733 164.999 47.2183 165.089 47.1683C165.179 47.1083 165.269 47.0783 165.359 47.0783C165.469 47.0783 165.559 47.1083 165.629 47.1683C165.699 47.2183 165.774 47.2983 165.854 47.4083L166.964 49.2083C166.424 49.6583 165.804 49.9983 165.104 50.2283C164.404 50.4583 163.679 50.5733 162.929 50.5733ZM178.159 40.8683C178.159 40.3883 178.089 39.9383 177.949 39.5183C177.819 39.0883 177.619 38.7133 177.349 38.3933C177.079 38.0733 176.734 37.8233 176.314 37.6433C175.904 37.4533 175.424 37.3583 174.874 37.3583C173.804 37.3583 172.959 37.6633 172.339 38.2733C171.729 38.8833 171.339 39.7483 171.169 40.8683H178.159ZM171.094 43.1033C171.154 43.8933 171.294 44.5783 171.514 45.1583C171.734 45.7283 172.024 46.2033 172.384 46.5833C172.744 46.9533 173.169 47.2333 173.659 47.4233C174.159 47.6033 174.709 47.6933 175.309 47.6933C175.909 47.6933 176.424 47.6233 176.854 47.4833C177.294 47.3433 177.674 47.1883 177.994 47.0183C178.324 46.8483 178.609 46.6933 178.849 46.5533C179.099 46.4133 179.339 46.3433 179.569 46.3433C179.879 46.3433 180.109 46.4583 180.259 46.6883L181.324 48.0383C180.914 48.5183 180.454 48.9233 179.944 49.2533C179.434 49.5733 178.899 49.8333 178.339 50.0333C177.789 50.2233 177.224 50.3583 176.644 50.4383C176.074 50.5183 175.519 50.5583 174.979 50.5583C173.909 50.5583 172.914 50.3833 171.994 50.0333C171.074 49.6733 170.274 49.1483 169.594 48.4583C168.914 47.7583 168.379 46.8983 167.989 45.8783C167.599 44.8483 167.404 43.6583 167.404 42.3083C167.404 41.2583 167.574 40.2733 167.914 39.3533C168.254 38.4233 168.739 37.6183 169.369 36.9383C170.009 36.2483 170.784 35.7033 171.694 35.3033C172.614 34.9033 173.649 34.7033 174.799 34.7033C175.769 34.7033 176.664 34.8583 177.484 35.1683C178.304 35.4783 179.009 35.9333 179.599 36.5333C180.189 37.1233 180.649 37.8533 180.979 38.7233C181.319 39.5833 181.489 40.5683 181.489 41.6783C181.489 42.2383 181.429 42.6183 181.309 42.8183C181.189 43.0083 180.959 43.1033 180.619 43.1033H171.094ZM187.134 36.8333C187.444 36.5233 187.769 36.2383 188.109 35.9783C188.459 35.7083 188.824 35.4833 189.204 35.3033C189.594 35.1133 190.009 34.9683 190.449 34.8683C190.889 34.7583 191.369 34.7033 191.889 34.7033C192.729 34.7033 193.474 34.8483 194.124 35.1383C194.774 35.4183 195.314 35.8183 195.744 36.3383C196.184 36.8483 196.514 37.4633 196.734 38.1833C196.964 38.8933 197.079 39.6783 197.079 40.5383V50.3333H193.374V40.5383C193.374 39.5983 193.159 38.8733 192.729 38.3633C192.299 37.8433 191.644 37.5833 190.764 37.5833C190.124 37.5833 189.524 37.7283 188.964 38.0183C188.404 38.3083 187.874 38.7033 187.374 39.2033V50.3333H183.669V34.9433H185.934C186.414 34.9433 186.729 35.1683 186.879 35.6183L187.134 36.8333ZM209.663 38.8733C209.243 38.3633 208.783 38.0033 208.283 37.7933C207.793 37.5833 207.263 37.4783 206.693 37.4783C206.133 37.4783 205.628 37.5833 205.178 37.7933C204.728 38.0033 204.343 38.3233 204.023 38.7533C203.703 39.1733 203.458 39.7133 203.288 40.3733C203.118 41.0233 203.033 41.7933 203.033 42.6833C203.033 43.5833 203.103 44.3483 203.243 44.9783C203.393 45.5983 203.603 46.1083 203.873 46.5083C204.143 46.8983 204.473 47.1833 204.863 47.3633C205.253 47.5333 205.688 47.6183 206.168 47.6183C206.938 47.6183 207.593 47.4583 208.133 47.1383C208.673 46.8183 209.183 46.3633 209.663 45.7733V38.8733ZM213.368 28.0433V50.3333H211.103C210.613 50.3333 210.303 50.1083 210.173 49.6583L209.858 48.1733C209.238 48.8833 208.523 49.4583 207.713 49.8983C206.913 50.3383 205.978 50.5583 204.908 50.5583C204.068 50.5583 203.298 50.3833 202.598 50.0333C201.898 49.6833 201.293 49.1783 200.783 48.5183C200.283 47.8483 199.893 47.0233 199.613 46.0433C199.343 45.0633 199.208 43.9433 199.208 42.6833C199.208 41.5433 199.363 40.4833 199.673 39.5033C199.983 38.5233 200.428 37.6733 201.008 36.9533C201.588 36.2333 202.283 35.6733 203.093 35.2733C203.903 34.8633 204.813 34.6583 205.823 34.6583C206.683 34.6583 207.418 34.7933 208.028 35.0633C208.638 35.3333 209.183 35.6983 209.663 36.1583V28.0433H213.368ZM220.265 34.9433V50.3333H216.545V34.9433H220.265ZM220.775 30.4583C220.775 30.7783 220.71 31.0783 220.58 31.3583C220.45 31.6383 220.275 31.8833 220.055 32.0933C219.845 32.3033 219.595 32.4733 219.305 32.6033C219.015 32.7233 218.705 32.7833 218.375 32.7833C218.055 32.7833 217.75 32.7233 217.46 32.6033C217.18 32.4733 216.935 32.3033 216.725 32.0933C216.515 31.8833 216.345 31.6383 216.215 31.3583C216.095 31.0783 216.035 30.7783 216.035 30.4583C216.035 30.1283 216.095 29.8183 216.215 29.5283C216.345 29.2383 216.515 28.9883 216.725 28.7783C216.935 28.5683 217.18 28.4033 217.46 28.2833C217.75 28.1533 218.055 28.0883 218.375 28.0883C218.705 28.0883 219.015 28.1533 219.305 28.2833C219.595 28.4033 219.845 28.5683 220.055 28.7783C220.275 28.9883 220.45 29.2383 220.58 29.5283C220.71 29.8183 220.775 30.1283 220.775 30.4583ZM223.442 50.3333V34.9433H225.707C226.187 34.9433 226.502 35.1683 226.652 35.6183L226.892 36.7583C227.162 36.4583 227.442 36.1833 227.732 35.9333C228.032 35.6833 228.347 35.4683 228.677 35.2883C229.017 35.1083 229.377 34.9683 229.757 34.8683C230.147 34.7583 230.572 34.7033 231.032 34.7033C232.002 34.7033 232.797 34.9683 233.417 35.4983C234.047 36.0183 234.517 36.7133 234.827 37.5833C235.067 37.0733 235.367 36.6383 235.727 36.2783C236.087 35.9083 236.482 35.6083 236.912 35.3783C237.342 35.1483 237.797 34.9783 238.277 34.8683C238.767 34.7583 239.257 34.7033 239.747 34.7033C240.597 34.7033 241.352 34.8333 242.012 35.0933C242.672 35.3533 243.227 35.7333 243.677 36.2333C244.127 36.7333 244.467 37.3433 244.697 38.0633C244.937 38.7833 245.057 39.6083 245.057 40.5383V50.3333H241.352V40.5383C241.352 39.5583 241.137 38.8233 240.707 38.3333C240.277 37.8333 239.647 37.5833 238.817 37.5833C238.437 37.5833 238.082 37.6483 237.752 37.7783C237.432 37.9083 237.147 38.0983 236.897 38.3483C236.657 38.5883 236.467 38.8933 236.327 39.2633C236.187 39.6333 236.117 40.0583 236.117 40.5383V50.3333H232.397V40.5383C232.397 39.5083 232.187 38.7583 231.767 38.2883C231.357 37.8183 230.752 37.5833 229.952 37.5833C229.412 37.5833 228.907 37.7183 228.437 37.9883C227.977 38.2483 227.547 38.6083 227.147 39.0683V50.3333H223.442ZM257.893 40.8683C257.893 40.3883 257.823 39.9383 257.683 39.5183C257.553 39.0883 257.353 38.7133 257.083 38.3933C256.813 38.0733 256.468 37.8233 256.048 37.6433C255.638 37.4533 255.158 37.3583 254.608 37.3583C253.538 37.3583 252.693 37.6633 252.073 38.2733C251.463 38.8833 251.073 39.7483 250.903 40.8683H257.893ZM250.828 43.1033C250.888 43.8933 251.028 44.5783 251.248 45.1583C251.468 45.7283 251.758 46.2033 252.118 46.5833C252.478 46.9533 252.903 47.2333 253.393 47.4233C253.893 47.6033 254.443 47.6933 255.043 47.6933C255.643 47.6933 256.158 47.6233 256.588 47.4833C257.028 47.3433 257.408 47.1883 257.728 47.0183C258.058 46.8483 258.343 46.6933 258.583 46.5533C258.833 46.4133 259.073 46.3433 259.303 46.3433C259.613 46.3433 259.843 46.4583 259.993 46.6883L261.058 48.0383C260.648 48.5183 260.188 48.9233 259.678 49.2533C259.168 49.5733 258.633 49.8333 258.073 50.0333C257.523 50.2233 256.958 50.3583 256.378 50.4383C255.808 50.5183 255.253 50.5583 254.713 50.5583C253.643 50.5583 252.648 50.3833 251.728 50.0333C250.808 49.6733 250.008 49.1483 249.328 48.4583C248.648 47.7583 248.113 46.8983 247.723 45.8783C247.333 44.8483 247.138 43.6583 247.138 42.3083C247.138 41.2583 247.308 40.2733 247.648 39.3533C247.988 38.4233 248.473 37.6183 249.103 36.9383C249.743 36.2483 250.518 35.7033 251.428 35.3033C252.348 34.9033 253.383 34.7033 254.533 34.7033C255.503 34.7033 256.398 34.8583 257.218 35.1683C258.038 35.4783 258.743 35.9333 259.333 36.5333C259.923 37.1233 260.383 37.8533 260.713 38.7233C261.053 39.5833 261.223 40.5683 261.223 41.6783C261.223 42.2383 261.163 42.6183 261.043 42.8183C260.923 43.0083 260.693 43.1033 260.353 43.1033H250.828ZM266.869 36.8333C267.179 36.5233 267.504 36.2383 267.844 35.9783C268.194 35.7083 268.559 35.4833 268.939 35.3033C269.329 35.1133 269.744 34.9683 270.184 34.8683C270.624 34.7583 271.104 34.7033 271.624 34.7033C272.464 34.7033 273.209 34.8483 273.859 35.1383C274.509 35.4183 275.049 35.8183 275.479 36.3383C275.919 36.8483 276.249 37.4633 276.469 38.1833C276.699 38.8933 276.814 39.6783 276.814 40.5383V50.3333H273.109V40.5383C273.109 39.5983 272.894 38.8733 272.464 38.3633C272.034 37.8433 271.379 37.5833 270.499 37.5833C269.859 37.5833 269.259 37.7283 268.699 38.0183C268.139 38.3083 267.609 38.7033 267.109 39.2033V50.3333H263.404V34.9433H265.669C266.149 34.9433 266.464 35.1683 266.614 35.6183L266.869 36.8333ZM284.662 50.5733C283.322 50.5733 282.292 50.1983 281.572 49.4483C280.862 48.6883 280.507 47.6433 280.507 46.3133V37.7183H278.932C278.732 37.7183 278.562 37.6533 278.422 37.5233C278.282 37.3933 278.212 37.1983 278.212 36.9383V35.4683L280.687 35.0633L281.467 30.8633C281.517 30.6633 281.612 30.5083 281.752 30.3983C281.892 30.2883 282.072 30.2333 282.292 30.2333H284.212V35.0783H288.322V37.7183H284.212V46.0583C284.212 46.5383 284.327 46.9133 284.557 47.1833C284.797 47.4533 285.122 47.5883 285.532 47.5883C285.762 47.5883 285.952 47.5633 286.102 47.5133C286.262 47.4533 286.397 47.3933 286.507 47.3333C286.627 47.2733 286.732 47.2183 286.822 47.1683C286.912 47.1083 287.002 47.0783 287.092 47.0783C287.202 47.0783 287.292 47.1083 287.362 47.1683C287.432 47.2183 287.507 47.2983 287.587 47.4083L288.697 49.2083C288.157 49.6583 287.537 49.9983 286.837 50.2283C286.137 50.4583 285.412 50.5733 284.662 50.5733ZM296.787 34.7033C297.927 34.7033 298.962 34.8883 299.892 35.2583C300.832 35.6283 301.632 36.1533 302.292 36.8333C302.962 37.5133 303.477 38.3433 303.837 39.3233C304.197 40.3033 304.377 41.3983 304.377 42.6083C304.377 43.8283 304.197 44.9283 303.837 45.9083C303.477 46.8883 302.962 47.7233 302.292 48.4133C301.632 49.1033 300.832 49.6333 299.892 50.0033C298.962 50.3733 297.927 50.5583 296.787 50.5583C295.637 50.5583 294.592 50.3733 293.652 50.0033C292.712 49.6333 291.907 49.1033 291.237 48.4133C290.577 47.7233 290.062 46.8883 289.692 45.9083C289.332 44.9283 289.152 43.8283 289.152 42.6083C289.152 41.3983 289.332 40.3033 289.692 39.3233C290.062 38.3433 290.577 37.5133 291.237 36.8333C291.907 36.1533 292.712 35.6283 293.652 35.2583C294.592 34.8883 295.637 34.7033 296.787 34.7033ZM296.787 47.7083C298.067 47.7083 299.012 47.2783 299.622 46.4183C300.242 45.5583 300.552 44.2983 300.552 42.6383C300.552 40.9783 300.242 39.7133 299.622 38.8433C299.012 37.9733 298.067 37.5383 296.787 37.5383C295.487 37.5383 294.522 37.9783 293.892 38.8583C293.272 39.7283 292.962 40.9883 292.962 42.6383C292.962 44.2883 293.272 45.5483 293.892 46.4183C294.522 47.2783 295.487 47.7083 296.787 47.7083Z" fill="#F5F5F5"/>
</svg>
