<svg width="358" height="224" viewBox="0 0 358 224" fill="none" xmlns="http://www.w3.org/2000/svg">
<rect width="336.044" height="224" rx="12" fill="#D9D9D9"/>
<rect x="20.7075" y="22.5" width="295.377" height="34" rx="4.5" fill="#D9D9D9" stroke="#3B4E57"/>
<rect x="20.7075" y="65.5" width="295.377" height="34" rx="4.5" fill="#D9D9D9" stroke="#3B4E57"/>
<rect x="20.7075" y="109.5" width="295.377" height="34" rx="5.5" fill="#D9D9D9" stroke="#3B4E57"/>
<path d="M44.08 33.2525V44H43.3525C43.2375 44 43.14 43.98 43.06 43.94C42.985 43.9 42.91 43.8325 42.835 43.7375L36.6175 35.6375C36.6275 35.7625 36.635 35.885 36.64 36.005C36.645 36.125 36.6475 36.2375 36.6475 36.3425V44H35.3725V33.2525H36.1225C36.1875 33.2525 36.2425 33.2575 36.2875 33.2675C36.3325 33.2725 36.3725 33.285 36.4075 33.305C36.4425 33.32 36.4775 33.345 36.5125 33.38C36.5475 33.41 36.585 33.45 36.625 33.5L42.8425 41.5925C42.8325 41.4625 42.8225 41.3375 42.8125 41.2175C42.8075 41.0925 42.805 40.975 42.805 40.865V33.2525H44.08ZM49.1807 36.2825C49.7357 36.2825 50.2357 36.375 50.6807 36.56C51.1257 36.745 51.5057 37.0075 51.8207 37.3475C52.1357 37.6875 52.3757 38.1 52.5407 38.585C52.7107 39.065 52.7957 39.6025 52.7957 40.1975C52.7957 40.7975 52.7107 41.3375 52.5407 41.8175C52.3757 42.2975 52.1357 42.7075 51.8207 43.0475C51.5057 43.3875 51.1257 43.65 50.6807 43.835C50.2357 44.015 49.7357 44.105 49.1807 44.105C48.6207 44.105 48.1157 44.015 47.6657 43.835C47.2207 43.65 46.8407 43.3875 46.5257 43.0475C46.2107 42.7075 45.9682 42.2975 45.7982 41.8175C45.6332 41.3375 45.5507 40.7975 45.5507 40.1975C45.5507 39.6025 45.6332 39.065 45.7982 38.585C45.9682 38.1 46.2107 37.6875 46.5257 37.3475C46.8407 37.0075 47.2207 36.745 47.6657 36.56C48.1157 36.375 48.6207 36.2825 49.1807 36.2825ZM49.1807 43.0625C49.9307 43.0625 50.4907 42.8125 50.8607 42.3125C51.2307 41.8075 51.4157 41.105 51.4157 40.205C51.4157 39.3 51.2307 38.595 50.8607 38.09C50.4907 37.585 49.9307 37.3325 49.1807 37.3325C48.8007 37.3325 48.4682 37.3975 48.1832 37.5275C47.9032 37.6575 47.6682 37.845 47.4782 38.09C47.2932 38.335 47.1532 38.6375 47.0582 38.9975C46.9682 39.3525 46.9232 39.755 46.9232 40.205C46.9232 41.105 47.1082 41.8075 47.4782 42.3125C47.8532 42.8125 48.4207 43.0625 49.1807 43.0625ZM54.1889 44V36.4025H54.9914C55.1814 36.4025 55.2989 36.495 55.3439 36.68L55.4414 37.46C55.7214 37.115 56.0364 36.8325 56.3864 36.6125C56.7364 36.3925 57.1414 36.2825 57.6014 36.2825C58.1114 36.2825 58.5239 36.425 58.8389 36.71C59.1589 36.995 59.3889 37.38 59.5289 37.865C59.6389 37.59 59.7789 37.3525 59.9489 37.1525C60.1239 36.9525 60.3189 36.7875 60.5339 36.6575C60.7489 36.5275 60.9764 36.4325 61.2164 36.3725C61.4614 36.3125 61.7089 36.2825 61.9589 36.2825C62.3589 36.2825 62.7139 36.3475 63.0239 36.4775C63.3389 36.6025 63.6039 36.7875 63.8189 37.0325C64.0389 37.2775 64.2064 37.58 64.3214 37.94C64.4364 38.295 64.4939 38.7025 64.4939 39.1625V44H63.1514V39.1625C63.1514 38.5675 63.0214 38.1175 62.7614 37.8125C62.5014 37.5025 62.1264 37.3475 61.6364 37.3475C61.4164 37.3475 61.2064 37.3875 61.0064 37.4675C60.8114 37.5425 60.6389 37.655 60.4889 37.805C60.3389 37.955 60.2189 38.145 60.1289 38.375C60.0439 38.6 60.0014 38.8625 60.0014 39.1625V44H58.6589V39.1625C58.6589 38.5525 58.5364 38.0975 58.2914 37.7975C58.0464 37.4975 57.6889 37.3475 57.2189 37.3475C56.8889 37.3475 56.5839 37.4375 56.3039 37.6175C56.0239 37.7925 55.7664 38.0325 55.5314 38.3375V44H54.1889ZM71.3079 39.3725C71.3079 39.0625 71.2629 38.78 71.1729 38.525C71.0879 38.265 70.9604 38.0425 70.7904 37.8575C70.6254 37.6675 70.4229 37.5225 70.1829 37.4225C69.9429 37.3175 69.6704 37.265 69.3654 37.265C68.7254 37.265 68.2179 37.4525 67.8429 37.8275C67.4729 38.1975 67.2429 38.7125 67.1529 39.3725H71.3079ZM72.3879 42.935C72.2229 43.135 72.0254 43.31 71.7954 43.46C71.5654 43.605 71.3179 43.725 71.0529 43.82C70.7929 43.915 70.5229 43.985 70.2429 44.03C69.9629 44.08 69.6854 44.105 69.4104 44.105C68.8854 44.105 68.4004 44.0175 67.9554 43.8425C67.5154 43.6625 67.1329 43.4025 66.8079 43.0625C66.4879 42.7175 66.2379 42.2925 66.0579 41.7875C65.8779 41.2825 65.7879 40.7025 65.7879 40.0475C65.7879 39.5175 65.8679 39.0225 66.0279 38.5625C66.1929 38.1025 66.4279 37.705 66.7329 37.37C67.0379 37.03 67.4104 36.765 67.8504 36.575C68.2904 36.38 68.7854 36.2825 69.3354 36.2825C69.7904 36.2825 70.2104 36.36 70.5954 36.515C70.9854 36.665 71.3204 36.885 71.6004 37.175C71.8854 37.46 72.1079 37.815 72.2679 38.24C72.4279 38.66 72.5079 39.14 72.5079 39.68C72.5079 39.89 72.4854 40.03 72.4404 40.1C72.3954 40.17 72.3104 40.205 72.1854 40.205H67.1079C67.1229 40.685 67.1879 41.1025 67.3029 41.4575C67.4229 41.8125 67.5879 42.11 67.7979 42.35C68.0079 42.585 68.2579 42.7625 68.5479 42.8825C68.8379 42.9975 69.1629 43.055 69.5229 43.055C69.8579 43.055 70.1454 43.0175 70.3854 42.9425C70.6304 42.8625 70.8404 42.7775 71.0154 42.6875C71.1904 42.5975 71.3354 42.515 71.4504 42.44C71.5704 42.36 71.6729 42.32 71.7579 42.32C71.8679 42.32 71.9529 42.3625 72.0129 42.4475L72.3879 42.935ZM73.7277 43.175C73.7277 43.045 73.7502 42.9225 73.7952 42.8075C73.8452 42.6925 73.9102 42.5925 73.9902 42.5075C74.0752 42.4225 74.1752 42.355 74.2902 42.305C74.4052 42.255 74.5277 42.23 74.6577 42.23C74.7877 42.23 74.9102 42.255 75.0252 42.305C75.1402 42.355 75.2402 42.4225 75.3252 42.5075C75.4102 42.5925 75.4777 42.6925 75.5277 42.8075C75.5777 42.9225 75.6027 43.045 75.6027 43.175C75.6027 43.31 75.5777 43.435 75.5277 43.55C75.4777 43.66 75.4102 43.7575 75.3252 43.8425C75.2402 43.9275 75.1402 43.9925 75.0252 44.0375C74.9102 44.0875 74.7877 44.1125 74.6577 44.1125C74.5277 44.1125 74.4052 44.0875 74.2902 44.0375C74.1752 43.9925 74.0752 43.9275 73.9902 43.8425C73.9102 43.7575 73.8452 43.66 73.7952 43.55C73.7502 43.435 73.7277 43.31 73.7277 43.175ZM73.7277 37.55C73.7277 37.42 73.7502 37.2975 73.7952 37.1825C73.8452 37.0675 73.9102 36.9675 73.9902 36.8825C74.0752 36.7975 74.1752 36.73 74.2902 36.68C74.4052 36.63 74.5277 36.605 74.6577 36.605C74.7877 36.605 74.9102 36.63 75.0252 36.68C75.1402 36.73 75.2402 36.7975 75.3252 36.8825C75.4102 36.9675 75.4777 37.0675 75.5277 37.1825C75.5777 37.2975 75.6027 37.42 75.6027 37.55C75.6027 37.685 75.5777 37.81 75.5277 37.925C75.4777 38.035 75.4102 38.1325 75.3252 38.2175C75.2402 38.3025 75.1402 38.37 75.0252 38.42C74.9102 38.465 74.7877 38.4875 74.6577 38.4875C74.5277 38.4875 74.4052 38.465 74.2902 38.42C74.1752 38.37 74.0752 38.3025 73.9902 38.2175C73.9102 38.1325 73.8452 38.035 73.7952 37.925C73.7502 37.81 73.7277 37.685 73.7277 37.55Z" fill="#3B4E57"/>
<path d="M42.0025 84.815L41.995 86H35.3725V75.2525H41.995V76.4375H36.8275V80.0075H41.0125V81.1475H36.8275V84.815H42.0025ZM43.2096 86V78.4025H44.0121C44.2021 78.4025 44.3196 78.495 44.3646 78.68L44.4621 79.46C44.7421 79.115 45.0571 78.8325 45.4071 78.6125C45.7571 78.3925 46.1621 78.2825 46.6221 78.2825C47.1321 78.2825 47.5446 78.425 47.8596 78.71C48.1796 78.995 48.4096 79.38 48.5496 79.865C48.6596 79.59 48.7996 79.3525 48.9696 79.1525C49.1446 78.9525 49.3396 78.7875 49.5546 78.6575C49.7696 78.5275 49.9971 78.4325 50.2371 78.3725C50.4821 78.3125 50.7296 78.2825 50.9796 78.2825C51.3796 78.2825 51.7346 78.3475 52.0446 78.4775C52.3596 78.6025 52.6246 78.7875 52.8396 79.0325C53.0596 79.2775 53.2271 79.58 53.3421 79.94C53.4571 80.295 53.5146 80.7025 53.5146 81.1625V86H52.1721V81.1625C52.1721 80.5675 52.0421 80.1175 51.7821 79.8125C51.5221 79.5025 51.1471 79.3475 50.6571 79.3475C50.4371 79.3475 50.2271 79.3875 50.0271 79.4675C49.8321 79.5425 49.6596 79.655 49.5096 79.805C49.3596 79.955 49.2396 80.145 49.1496 80.375C49.0646 80.6 49.0221 80.8625 49.0221 81.1625V86H47.6796V81.1625C47.6796 80.5525 47.5571 80.0975 47.3121 79.7975C47.0671 79.4975 46.7096 79.3475 46.2396 79.3475C45.9096 79.3475 45.6046 79.4375 45.3246 79.6175C45.0446 79.7925 44.7871 80.0325 44.5521 80.3375V86H43.2096ZM59.3611 82.58C58.7461 82.6 58.2211 82.65 57.7861 82.73C57.3561 82.805 57.0036 82.905 56.7286 83.03C56.4586 83.155 56.2611 83.3025 56.1361 83.4725C56.0161 83.6425 55.9561 83.8325 55.9561 84.0425C55.9561 84.2425 55.9886 84.415 56.0536 84.56C56.1186 84.705 56.2061 84.825 56.3161 84.92C56.4311 85.01 56.5636 85.0775 56.7136 85.1225C56.8686 85.1625 57.0336 85.1825 57.2086 85.1825C57.4436 85.1825 57.6586 85.16 57.8536 85.115C58.0486 85.065 58.2311 84.995 58.4011 84.905C58.5761 84.815 58.7411 84.7075 58.8961 84.5825C59.0561 84.4575 59.2111 84.315 59.3611 84.155V82.58ZM55.0486 79.475C55.4686 79.07 55.9211 78.7675 56.4061 78.5675C56.8911 78.3675 57.4286 78.2675 58.0186 78.2675C58.4436 78.2675 58.8211 78.3375 59.1511 78.4775C59.4811 78.6175 59.7586 78.8125 59.9836 79.0625C60.2086 79.3125 60.3786 79.615 60.4936 79.97C60.6086 80.325 60.6661 80.715 60.6661 81.14V86H60.0736C59.9436 86 59.8436 85.98 59.7736 85.94C59.7036 85.895 59.6486 85.81 59.6086 85.685L59.4586 84.965C59.2586 85.15 59.0636 85.315 58.8736 85.46C58.6836 85.6 58.4836 85.72 58.2736 85.82C58.0636 85.915 57.8386 85.9875 57.5986 86.0375C57.3636 86.0925 57.1011 86.12 56.8111 86.12C56.5161 86.12 56.2386 86.08 55.9786 86C55.7186 85.915 55.4911 85.79 55.2961 85.625C55.1061 85.46 54.9536 85.2525 54.8386 85.0025C54.7286 84.7475 54.6736 84.4475 54.6736 84.1025C54.6736 83.8025 54.7561 83.515 54.9211 83.24C55.0861 82.96 55.3536 82.7125 55.7236 82.4975C56.0936 82.2825 56.5761 82.1075 57.1711 81.9725C57.7661 81.8325 58.4961 81.7525 59.3611 81.7325V81.14C59.3611 80.55 59.2336 80.105 58.9786 79.805C58.7236 79.5 58.3511 79.3475 57.8611 79.3475C57.5311 79.3475 57.2536 79.39 57.0286 79.475C56.8086 79.555 56.6161 79.6475 56.4511 79.7525C56.2911 79.8525 56.1511 79.945 56.0311 80.03C55.9161 80.11 55.8011 80.15 55.6861 80.15C55.5961 80.15 55.5186 80.1275 55.4536 80.0825C55.3886 80.0325 55.3336 79.9725 55.2886 79.9025L55.0486 79.475ZM63.8097 78.4025V86H62.4747V78.4025H63.8097ZM64.0947 76.0175C64.0947 76.1475 64.0672 76.27 64.0122 76.385C63.9622 76.495 63.8922 76.595 63.8022 76.685C63.7172 76.77 63.6147 76.8375 63.4947 76.8875C63.3797 76.9375 63.2572 76.9625 63.1272 76.9625C62.9972 76.9625 62.8747 76.9375 62.7597 76.8875C62.6497 76.8375 62.5522 76.77 62.4672 76.685C62.3822 76.595 62.3147 76.495 62.2647 76.385C62.2147 76.27 62.1897 76.1475 62.1897 76.0175C62.1897 75.8875 62.2147 75.765 62.2647 75.65C62.3147 75.53 62.3822 75.4275 62.4672 75.3425C62.5522 75.2525 62.6497 75.1825 62.7597 75.1325C62.8747 75.0825 62.9972 75.0575 63.1272 75.0575C63.2572 75.0575 63.3797 75.0825 63.4947 75.1325C63.6147 75.1825 63.7172 75.2525 63.8022 75.3425C63.8922 75.4275 63.9622 75.53 64.0122 75.65C64.0672 75.765 64.0947 75.8875 64.0947 76.0175ZM67.0832 74.9525V86H65.7482V74.9525H67.0832ZM68.8281 85.175C68.8281 85.045 68.8506 84.9225 68.8956 84.8075C68.9456 84.6925 69.0106 84.5925 69.0906 84.5075C69.1756 84.4225 69.2756 84.355 69.3906 84.305C69.5056 84.255 69.6281 84.23 69.7581 84.23C69.8881 84.23 70.0106 84.255 70.1256 84.305C70.2406 84.355 70.3406 84.4225 70.4256 84.5075C70.5106 84.5925 70.5781 84.6925 70.6281 84.8075C70.6781 84.9225 70.7031 85.045 70.7031 85.175C70.7031 85.31 70.6781 85.435 70.6281 85.55C70.5781 85.66 70.5106 85.7575 70.4256 85.8425C70.3406 85.9275 70.2406 85.9925 70.1256 86.0375C70.0106 86.0875 69.8881 86.1125 69.7581 86.1125C69.6281 86.1125 69.5056 86.0875 69.3906 86.0375C69.2756 85.9925 69.1756 85.9275 69.0906 85.8425C69.0106 85.7575 68.9456 85.66 68.8956 85.55C68.8506 85.435 68.8281 85.31 68.8281 85.175ZM68.8281 79.55C68.8281 79.42 68.8506 79.2975 68.8956 79.1825C68.9456 79.0675 69.0106 78.9675 69.0906 78.8825C69.1756 78.7975 69.2756 78.73 69.3906 78.68C69.5056 78.63 69.6281 78.605 69.7581 78.605C69.8881 78.605 70.0106 78.63 70.1256 78.68C70.2406 78.73 70.3406 78.7975 70.4256 78.8825C70.5106 78.9675 70.5781 79.0675 70.6281 79.1825C70.6781 79.2975 70.7031 79.42 70.7031 79.55C70.7031 79.685 70.6781 79.81 70.6281 79.925C70.5781 80.035 70.5106 80.1325 70.4256 80.2175C70.3406 80.3025 70.2406 80.37 70.1256 80.42C70.0106 80.465 69.8881 80.4875 69.7581 80.4875C69.6281 80.4875 69.5056 80.465 69.3906 80.42C69.2756 80.37 69.1756 80.3025 69.0906 80.2175C69.0106 80.1325 68.9456 80.035 68.8956 79.925C68.8506 79.81 68.8281 79.685 68.8281 79.55Z" fill="#3B4E57"/>
<path d="M42.64 120.475H39.16V130H37.7125V120.475H34.225V119.252H42.64V120.475ZM46.8738 125.372C46.8738 125.062 46.8288 124.78 46.7388 124.525C46.6538 124.265 46.5263 124.042 46.3563 123.857C46.1912 123.667 45.9887 123.522 45.7488 123.422C45.5088 123.317 45.2363 123.265 44.9312 123.265C44.2912 123.265 43.7837 123.452 43.4087 123.827C43.0387 124.197 42.8087 124.712 42.7187 125.372H46.8738ZM47.9538 128.935C47.7888 129.135 47.5913 129.31 47.3613 129.46C47.1313 129.605 46.8838 129.725 46.6188 129.82C46.3588 129.915 46.0888 129.985 45.8088 130.03C45.5288 130.08 45.2513 130.105 44.9763 130.105C44.4513 130.105 43.9662 130.017 43.5212 129.842C43.0812 129.662 42.6987 129.402 42.3737 129.062C42.0537 128.717 41.8037 128.292 41.6237 127.787C41.4437 127.282 41.3537 126.702 41.3537 126.047C41.3537 125.517 41.4337 125.022 41.5937 124.562C41.7587 124.102 41.9937 123.705 42.2987 123.37C42.6037 123.03 42.9762 122.765 43.4162 122.575C43.8562 122.38 44.3512 122.282 44.9013 122.282C45.3563 122.282 45.7762 122.36 46.1613 122.515C46.5513 122.665 46.8863 122.885 47.1663 123.175C47.4513 123.46 47.6737 123.815 47.8338 124.24C47.9938 124.66 48.0738 125.14 48.0738 125.68C48.0738 125.89 48.0513 126.03 48.0063 126.1C47.9613 126.17 47.8763 126.205 47.7513 126.205H42.6737C42.6887 126.685 42.7537 127.102 42.8688 127.457C42.9887 127.812 43.1537 128.11 43.3637 128.35C43.5737 128.585 43.8237 128.762 44.1138 128.882C44.4037 128.997 44.7287 129.055 45.0888 129.055C45.4237 129.055 45.7112 129.017 45.9513 128.942C46.1963 128.862 46.4063 128.777 46.5813 128.687C46.7563 128.597 46.9013 128.515 47.0163 128.44C47.1363 128.36 47.2388 128.32 47.3238 128.32C47.4338 128.32 47.5188 128.362 47.5788 128.447L47.9538 128.935ZM50.7936 118.952V130H49.4586V118.952H50.7936ZM57.7435 125.372C57.7435 125.062 57.6985 124.78 57.6085 124.525C57.5235 124.265 57.396 124.042 57.226 123.857C57.061 123.667 56.8585 123.522 56.6185 123.422C56.3785 123.317 56.106 123.265 55.801 123.265C55.161 123.265 54.6535 123.452 54.2785 123.827C53.9085 124.197 53.6785 124.712 53.5885 125.372H57.7435ZM58.8235 128.935C58.6585 129.135 58.461 129.31 58.231 129.46C58.001 129.605 57.7535 129.725 57.4885 129.82C57.2285 129.915 56.9585 129.985 56.6785 130.03C56.3985 130.08 56.121 130.105 55.846 130.105C55.321 130.105 54.836 130.017 54.391 129.842C53.951 129.662 53.5685 129.402 53.2435 129.062C52.9235 128.717 52.6735 128.292 52.4935 127.787C52.3135 127.282 52.2235 126.702 52.2235 126.047C52.2235 125.517 52.3035 125.022 52.4635 124.562C52.6285 124.102 52.8635 123.705 53.1685 123.37C53.4735 123.03 53.846 122.765 54.286 122.575C54.726 122.38 55.221 122.282 55.771 122.282C56.226 122.282 56.646 122.36 57.031 122.515C57.421 122.665 57.756 122.885 58.036 123.175C58.321 123.46 58.5435 123.815 58.7035 124.24C58.8635 124.66 58.9435 125.14 58.9435 125.68C58.9435 125.89 58.921 126.03 58.876 126.1C58.831 126.17 58.746 126.205 58.621 126.205H53.5435C53.5585 126.685 53.6235 127.102 53.7385 127.457C53.8585 127.812 54.0235 128.11 54.2335 128.35C54.4435 128.585 54.6935 128.762 54.9835 128.882C55.2735 128.997 55.5985 129.055 55.9585 129.055C56.2935 129.055 56.581 129.017 56.821 128.942C57.066 128.862 57.276 128.777 57.451 128.687C57.626 128.597 57.771 128.515 57.886 128.44C58.006 128.36 58.1085 128.32 58.1935 128.32C58.3035 128.32 58.3885 128.362 58.4485 128.447L58.8235 128.935ZM60.705 130V123.542L59.865 123.445C59.76 123.42 59.6725 123.382 59.6025 123.332C59.5375 123.277 59.505 123.2 59.505 123.1V122.552H60.705V121.817C60.705 121.382 60.765 120.997 60.885 120.662C61.01 120.322 61.185 120.037 61.41 119.807C61.64 119.572 61.915 119.395 62.235 119.275C62.555 119.155 62.915 119.095 63.315 119.095C63.655 119.095 63.9675 119.145 64.2525 119.245L64.2225 119.912C64.2125 120.032 64.145 120.097 64.02 120.107C63.9 120.117 63.7375 120.122 63.5325 120.122C63.3025 120.122 63.0925 120.152 62.9025 120.212C62.7175 120.272 62.5575 120.37 62.4225 120.505C62.2875 120.64 62.1825 120.817 62.1075 121.037C62.0375 121.257 62.0025 121.53 62.0025 121.855V122.552H64.1925V123.52H62.0475V130H60.705ZM68.1223 122.282C68.6773 122.282 69.1773 122.375 69.6223 122.56C70.0673 122.745 70.4473 123.007 70.7623 123.347C71.0773 123.687 71.3173 124.1 71.4823 124.585C71.6523 125.065 71.7373 125.602 71.7373 126.197C71.7373 126.797 71.6523 127.337 71.4823 127.817C71.3173 128.297 71.0773 128.707 70.7623 129.047C70.4473 129.387 70.0673 129.65 69.6223 129.835C69.1773 130.015 68.6773 130.105 68.1223 130.105C67.5623 130.105 67.0573 130.015 66.6073 129.835C66.1623 129.65 65.7823 129.387 65.4673 129.047C65.1523 128.707 64.9098 128.297 64.7398 127.817C64.5748 127.337 64.4923 126.797 64.4923 126.197C64.4923 125.602 64.5748 125.065 64.7398 124.585C64.9098 124.1 65.1523 123.687 65.4673 123.347C65.7823 123.007 66.1623 122.745 66.6073 122.56C67.0573 122.375 67.5623 122.282 68.1223 122.282ZM68.1223 129.062C68.8723 129.062 69.4323 128.812 69.8023 128.312C70.1723 127.807 70.3573 127.105 70.3573 126.205C70.3573 125.3 70.1723 124.595 69.8023 124.09C69.4323 123.585 68.8723 123.332 68.1223 123.332C67.7423 123.332 67.4098 123.397 67.1248 123.527C66.8448 123.657 66.6098 123.845 66.4198 124.09C66.2348 124.335 66.0948 124.637 65.9998 124.997C65.9098 125.352 65.8648 125.755 65.8648 126.205C65.8648 127.105 66.0498 127.807 66.4198 128.312C66.7948 128.812 67.3623 129.062 68.1223 129.062ZM74.3905 123.505C74.5555 123.32 74.7305 123.152 74.9155 123.002C75.1005 122.852 75.2955 122.725 75.5005 122.62C75.7105 122.51 75.9305 122.427 76.1605 122.372C76.3955 122.312 76.648 122.282 76.918 122.282C77.333 122.282 77.698 122.352 78.013 122.492C78.333 122.627 78.598 122.822 78.808 123.077C79.023 123.327 79.1855 123.63 79.2955 123.985C79.4055 124.34 79.4605 124.732 79.4605 125.162V130H78.118V125.162C78.118 124.587 77.9855 124.142 77.7205 123.827C77.4605 123.507 77.063 123.347 76.528 123.347C76.133 123.347 75.763 123.442 75.418 123.632C75.078 123.822 74.763 124.08 74.473 124.405V130H73.1305V122.402H73.933C74.123 122.402 74.2405 122.495 74.2855 122.68L74.3905 123.505ZM86.2798 125.372C86.2798 125.062 86.2348 124.78 86.1448 124.525C86.0598 124.265 85.9323 124.042 85.7623 123.857C85.5973 123.667 85.3948 123.522 85.1548 123.422C84.9148 123.317 84.6423 123.265 84.3373 123.265C83.6973 123.265 83.1898 123.452 82.8148 123.827C82.4448 124.197 82.2148 124.712 82.1248 125.372H86.2798ZM87.3598 128.935C87.1948 129.135 86.9973 129.31 86.7673 129.46C86.5373 129.605 86.2898 129.725 86.0248 129.82C85.7648 129.915 85.4948 129.985 85.2148 130.03C84.9348 130.08 84.6573 130.105 84.3823 130.105C83.8573 130.105 83.3723 130.017 82.9273 129.842C82.4873 129.662 82.1048 129.402 81.7798 129.062C81.4598 128.717 81.2098 128.292 81.0298 127.787C80.8498 127.282 80.7598 126.702 80.7598 126.047C80.7598 125.517 80.8398 125.022 80.9998 124.562C81.1648 124.102 81.3998 123.705 81.7048 123.37C82.0098 123.03 82.3823 122.765 82.8223 122.575C83.2623 122.38 83.7573 122.282 84.3073 122.282C84.7623 122.282 85.1823 122.36 85.5673 122.515C85.9573 122.665 86.2923 122.885 86.5723 123.175C86.8573 123.46 87.0798 123.815 87.2398 124.24C87.3998 124.66 87.4798 125.14 87.4798 125.68C87.4798 125.89 87.4573 126.03 87.4123 126.1C87.3673 126.17 87.2823 126.205 87.1573 126.205H82.0798C82.0948 126.685 82.1598 127.102 82.2748 127.457C82.3948 127.812 82.5598 128.11 82.7698 128.35C82.9798 128.585 83.2298 128.762 83.5198 128.882C83.8098 128.997 84.1348 129.055 84.4948 129.055C84.8298 129.055 85.1173 129.017 85.3573 128.942C85.6023 128.862 85.8123 128.777 85.9873 128.687C86.1623 128.597 86.3073 128.515 86.4223 128.44C86.5423 128.36 86.6448 128.32 86.7298 128.32C86.8398 128.32 86.9248 128.362 86.9848 128.447L87.3598 128.935ZM88.6996 129.175C88.6996 129.045 88.7221 128.922 88.7671 128.807C88.8171 128.692 88.8821 128.592 88.9621 128.507C89.0471 128.422 89.1471 128.355 89.2621 128.305C89.3771 128.255 89.4996 128.23 89.6296 128.23C89.7596 128.23 89.8821 128.255 89.9971 128.305C90.1121 128.355 90.2121 128.422 90.2971 128.507C90.3821 128.592 90.4496 128.692 90.4996 128.807C90.5496 128.922 90.5746 129.045 90.5746 129.175C90.5746 129.31 90.5496 129.435 90.4996 129.55C90.4496 129.66 90.3821 129.757 90.2971 129.842C90.2121 129.927 90.1121 129.992 89.9971 130.038C89.8821 130.088 89.7596 130.113 89.6296 130.113C89.4996 130.113 89.3771 130.088 89.2621 130.038C89.1471 129.992 89.0471 129.927 88.9621 129.842C88.8821 129.757 88.8171 129.66 88.7671 129.55C88.7221 129.435 88.6996 129.31 88.6996 129.175ZM88.6996 123.55C88.6996 123.42 88.7221 123.297 88.7671 123.182C88.8171 123.067 88.8821 122.967 88.9621 122.882C89.0471 122.797 89.1471 122.73 89.2621 122.68C89.3771 122.63 89.4996 122.605 89.6296 122.605C89.7596 122.605 89.8821 122.63 89.9971 122.68C90.1121 122.73 90.2121 122.797 90.2971 122.882C90.3821 122.967 90.4496 123.067 90.4996 123.182C90.5496 123.297 90.5746 123.42 90.5746 123.55C90.5746 123.685 90.5496 123.81 90.4996 123.925C90.4496 124.035 90.3821 124.132 90.2971 124.217C90.2121 124.302 90.1121 124.37 89.9971 124.42C89.8821 124.465 89.7596 124.487 89.6296 124.487C89.4996 124.487 89.3771 124.465 89.2621 124.42C89.1471 124.37 89.0471 124.302 88.9621 124.217C88.8821 124.132 88.8171 124.035 88.7671 123.925C88.7221 123.81 88.6996 123.685 88.6996 123.55Z" fill="#3B4E57"/>
<rect x="20.2075" y="160" width="296.377" height="43" rx="6" fill="#3B4E57"/>
<path d="M142.31 175.68V179.69H147.37V181.76H142.31V185.85H148.73V188H139.61V173.54H148.73V175.68H142.31ZM152.419 179C152.626 178.793 152.842 178.603 153.069 178.43C153.302 178.25 153.546 178.1 153.799 177.98C154.059 177.853 154.336 177.757 154.629 177.69C154.922 177.617 155.242 177.58 155.589 177.58C156.149 177.58 156.646 177.677 157.079 177.87C157.512 178.057 157.872 178.323 158.159 178.67C158.452 179.01 158.672 179.42 158.819 179.9C158.972 180.373 159.049 180.897 159.049 181.47V188H156.579V181.47C156.579 180.843 156.436 180.36 156.149 180.02C155.862 179.673 155.426 179.5 154.839 179.5C154.412 179.5 154.012 179.597 153.639 179.79C153.266 179.983 152.912 180.247 152.579 180.58V188H150.109V177.74H151.619C151.939 177.74 152.149 177.89 152.249 178.19L152.419 179ZM170.014 177.74L165.944 188H163.704L159.634 177.74H161.674C161.86 177.74 162.014 177.783 162.134 177.87C162.26 177.957 162.344 178.067 162.384 178.2L164.364 183.68C164.47 184 164.564 184.313 164.644 184.62C164.724 184.927 164.794 185.233 164.854 185.54C164.92 185.233 164.994 184.927 165.074 184.62C165.154 184.313 165.25 184 165.364 183.68L167.384 178.2C167.43 178.067 167.514 177.957 167.634 177.87C167.754 177.783 167.897 177.74 168.064 177.74H170.014ZM173.49 177.74V188H171.01V177.74H173.49ZM173.83 174.75C173.83 174.963 173.787 175.163 173.7 175.35C173.613 175.537 173.497 175.7 173.35 175.84C173.21 175.98 173.043 176.093 172.85 176.18C172.657 176.26 172.45 176.3 172.23 176.3C172.017 176.3 171.813 176.26 171.62 176.18C171.433 176.093 171.27 175.98 171.13 175.84C170.99 175.7 170.877 175.537 170.79 175.35C170.71 175.163 170.67 174.963 170.67 174.75C170.67 174.53 170.71 174.323 170.79 174.13C170.877 173.937 170.99 173.77 171.13 173.63C171.27 173.49 171.433 173.38 171.62 173.3C171.813 173.213 172.017 173.17 172.23 173.17C172.45 173.17 172.657 173.213 172.85 173.3C173.043 173.38 173.21 173.49 173.35 173.63C173.497 173.77 173.613 173.937 173.7 174.13C173.787 174.323 173.83 174.53 173.83 174.75ZM181.028 183.62C180.315 183.653 179.715 183.717 179.228 183.81C178.742 183.897 178.352 184.01 178.058 184.15C177.765 184.29 177.555 184.453 177.428 184.64C177.302 184.827 177.238 185.03 177.238 185.25C177.238 185.683 177.365 185.993 177.618 186.18C177.878 186.367 178.215 186.46 178.628 186.46C179.135 186.46 179.572 186.37 179.938 186.19C180.312 186.003 180.675 185.723 181.028 185.35V183.62ZM175.368 179.17C176.548 178.09 177.968 177.55 179.628 177.55C180.228 177.55 180.765 177.65 181.238 177.85C181.712 178.043 182.112 178.317 182.438 178.67C182.765 179.017 183.012 179.433 183.178 179.92C183.352 180.407 183.438 180.94 183.438 181.52V188H182.318C182.085 188 181.905 187.967 181.778 187.9C181.652 187.827 181.552 187.683 181.478 187.47L181.258 186.73C180.998 186.963 180.745 187.17 180.498 187.35C180.252 187.523 179.995 187.67 179.728 187.79C179.462 187.91 179.175 188 178.868 188.06C178.568 188.127 178.235 188.16 177.868 188.16C177.435 188.16 177.035 188.103 176.668 187.99C176.302 187.87 175.985 187.693 175.718 187.46C175.452 187.227 175.245 186.937 175.098 186.59C174.952 186.243 174.878 185.84 174.878 185.38C174.878 185.12 174.922 184.863 175.008 184.61C175.095 184.35 175.235 184.103 175.428 183.87C175.628 183.637 175.885 183.417 176.198 183.21C176.512 183.003 176.895 182.823 177.348 182.67C177.808 182.517 178.342 182.393 178.948 182.3C179.555 182.2 180.248 182.14 181.028 182.12V181.52C181.028 180.833 180.882 180.327 180.588 180C180.295 179.667 179.872 179.5 179.318 179.5C178.918 179.5 178.585 179.547 178.318 179.64C178.058 179.733 177.828 179.84 177.628 179.96C177.428 180.073 177.245 180.177 177.078 180.27C176.918 180.363 176.738 180.41 176.538 180.41C176.365 180.41 176.218 180.367 176.098 180.28C175.978 180.187 175.882 180.08 175.808 179.96L175.368 179.17ZM187.695 179.52C188.015 178.907 188.395 178.427 188.835 178.08C189.275 177.727 189.795 177.55 190.395 177.55C190.868 177.55 191.248 177.653 191.535 177.86L191.375 179.71C191.341 179.83 191.291 179.917 191.225 179.97C191.165 180.017 191.081 180.04 190.975 180.04C190.875 180.04 190.725 180.023 190.525 179.99C190.331 179.957 190.141 179.94 189.955 179.94C189.681 179.94 189.438 179.98 189.225 180.06C189.011 180.14 188.818 180.257 188.645 180.41C188.478 180.557 188.328 180.737 188.195 180.95C188.068 181.163 187.948 181.407 187.835 181.68V188H185.365V177.74H186.815C187.068 177.74 187.245 177.787 187.345 177.88C187.445 177.967 187.511 178.127 187.545 178.36L187.695 179.52Z" fill="#D9D9D9"/>
</svg>
